<mxfile host="app.diagrams.net" modified="2023-05-17T09:51:28.435Z" agent="Mozilla/5.0 (Windows NT 10.0; Win64; x64) AppleWebKit/537.36 (KHTML, like Gecko) Chrome/113.0.0.0 Safari/537.36" etag="uiIxXvdz400nXcQs4Eqz" version="21.2.9" type="device">
  <diagram name="Page-1" id="x7Fau0vDh0JjR-PrWWRc">
    <mxGraphModel dx="1963" dy="2442" grid="1" gridSize="10" guides="1" tooltips="1" connect="1" arrows="1" fold="1" page="1" pageScale="1" pageWidth="827" pageHeight="1169" math="0" shadow="0">
      <root>
        <mxCell id="0" />
        <mxCell id="1" parent="0" />
        <mxCell id="FLPA2IYpirZjQdBNPpxb-1" value="" style="shape=cylinder3;whiteSpace=wrap;html=1;boundedLbl=1;backgroundOutline=1;size=15;" parent="1" vertex="1">
          <mxGeometry x="1300" y="265" width="60" height="80" as="geometry" />
        </mxCell>
        <mxCell id="FLPA2IYpirZjQdBNPpxb-2" value="" style="endArrow=none;html=1;rounded=0;startArrow=none;" parent="1" source="FLPA2IYpirZjQdBNPpxb-64" edge="1">
          <mxGeometry width="50" height="50" relative="1" as="geometry">
            <mxPoint x="1570" y="115" as="sourcePoint" />
            <mxPoint x="1330" y="275" as="targetPoint" />
            <Array as="points">
              <mxPoint x="1330" y="195" />
            </Array>
          </mxGeometry>
        </mxCell>
        <mxCell id="FLPA2IYpirZjQdBNPpxb-3" value="" style="endArrow=none;html=1;rounded=0;" parent="1" edge="1">
          <mxGeometry width="50" height="50" relative="1" as="geometry">
            <mxPoint x="1330" y="90" as="sourcePoint" />
            <mxPoint x="1330" y="-40" as="targetPoint" />
          </mxGeometry>
        </mxCell>
        <mxCell id="FLPA2IYpirZjQdBNPpxb-4" value="&lt;b&gt;&lt;font style=&quot;font-size: 15px;&quot;&gt;M&lt;/font&gt;&lt;/b&gt;" style="text;html=1;strokeColor=none;fillColor=none;align=center;verticalAlign=middle;whiteSpace=wrap;rounded=0;" parent="1" vertex="1">
          <mxGeometry x="1479" y="-96" width="60" height="30" as="geometry" />
        </mxCell>
        <mxCell id="FLPA2IYpirZjQdBNPpxb-5" value="&lt;b&gt;&lt;font style=&quot;font-size: 15px;&quot;&gt;O&lt;/font&gt;&lt;/b&gt;" style="text;html=1;strokeColor=none;fillColor=none;align=center;verticalAlign=middle;whiteSpace=wrap;rounded=0;" parent="1" vertex="1">
          <mxGeometry x="1290" y="385" width="60" height="30" as="geometry" />
        </mxCell>
        <mxCell id="FLPA2IYpirZjQdBNPpxb-6" value="" style="endArrow=none;html=1;rounded=0;exitX=0.5;exitY=1;exitDx=0;exitDy=0;exitPerimeter=0;" parent="1" source="FLPA2IYpirZjQdBNPpxb-1" edge="1">
          <mxGeometry width="50" height="50" relative="1" as="geometry">
            <mxPoint x="1510" y="245" as="sourcePoint" />
            <mxPoint x="1330" y="415" as="targetPoint" />
          </mxGeometry>
        </mxCell>
        <mxCell id="FLPA2IYpirZjQdBNPpxb-7" value="" style="endArrow=none;html=1;rounded=0;startArrow=none;" parent="1" source="FLPA2IYpirZjQdBNPpxb-17" edge="1">
          <mxGeometry width="50" height="50" relative="1" as="geometry">
            <mxPoint x="1240" y="415" as="sourcePoint" />
            <mxPoint x="1440" y="410" as="targetPoint" />
          </mxGeometry>
        </mxCell>
        <mxCell id="FLPA2IYpirZjQdBNPpxb-8" value="" style="endArrow=none;html=1;rounded=0;" parent="1" edge="1">
          <mxGeometry width="50" height="50" relative="1" as="geometry">
            <mxPoint x="1230" y="440" as="sourcePoint" />
            <mxPoint x="1260" y="410" as="targetPoint" />
          </mxGeometry>
        </mxCell>
        <mxCell id="FLPA2IYpirZjQdBNPpxb-9" value="" style="endArrow=none;html=1;rounded=0;" parent="1" edge="1">
          <mxGeometry width="50" height="50" relative="1" as="geometry">
            <mxPoint x="1260" y="440" as="sourcePoint" />
            <mxPoint x="1290" y="410" as="targetPoint" />
          </mxGeometry>
        </mxCell>
        <mxCell id="FLPA2IYpirZjQdBNPpxb-10" value="" style="endArrow=none;html=1;rounded=0;" parent="1" edge="1">
          <mxGeometry width="50" height="50" relative="1" as="geometry">
            <mxPoint x="1290" y="440" as="sourcePoint" />
            <mxPoint x="1320" y="410" as="targetPoint" />
          </mxGeometry>
        </mxCell>
        <mxCell id="FLPA2IYpirZjQdBNPpxb-11" value="" style="endArrow=none;html=1;rounded=0;" parent="1" edge="1">
          <mxGeometry width="50" height="50" relative="1" as="geometry">
            <mxPoint x="1320" y="440" as="sourcePoint" />
            <mxPoint x="1350" y="410" as="targetPoint" />
          </mxGeometry>
        </mxCell>
        <mxCell id="FLPA2IYpirZjQdBNPpxb-12" value="" style="endArrow=none;html=1;rounded=0;" parent="1" edge="1">
          <mxGeometry width="50" height="50" relative="1" as="geometry">
            <mxPoint x="1350" y="440" as="sourcePoint" />
            <mxPoint x="1380" y="410" as="targetPoint" />
          </mxGeometry>
        </mxCell>
        <mxCell id="FLPA2IYpirZjQdBNPpxb-13" value="" style="endArrow=none;html=1;rounded=0;" parent="1" edge="1">
          <mxGeometry width="50" height="50" relative="1" as="geometry">
            <mxPoint x="1380" y="440" as="sourcePoint" />
            <mxPoint x="1410" y="410" as="targetPoint" />
          </mxGeometry>
        </mxCell>
        <mxCell id="FLPA2IYpirZjQdBNPpxb-14" value="" style="endArrow=none;html=1;rounded=0;" parent="1" edge="1">
          <mxGeometry width="50" height="50" relative="1" as="geometry">
            <mxPoint x="1410" y="440" as="sourcePoint" />
            <mxPoint x="1440" y="410" as="targetPoint" />
          </mxGeometry>
        </mxCell>
        <mxCell id="FLPA2IYpirZjQdBNPpxb-15" value="" style="endArrow=classic;startArrow=classic;html=1;rounded=0;fillColor=#d5e8d4;strokeColor=#41841a;" parent="1" edge="1">
          <mxGeometry width="50" height="50" relative="1" as="geometry">
            <mxPoint x="1200" y="415" as="sourcePoint" />
            <mxPoint x="1200" y="135" as="targetPoint" />
          </mxGeometry>
        </mxCell>
        <mxCell id="FLPA2IYpirZjQdBNPpxb-16" value="" style="endArrow=none;html=1;rounded=0;" parent="1" target="FLPA2IYpirZjQdBNPpxb-17" edge="1">
          <mxGeometry width="50" height="50" relative="1" as="geometry">
            <mxPoint x="1240" y="410" as="sourcePoint" />
            <mxPoint x="1440" y="415" as="targetPoint" />
          </mxGeometry>
        </mxCell>
        <mxCell id="FLPA2IYpirZjQdBNPpxb-17" value="" style="ellipse;whiteSpace=wrap;html=1;aspect=fixed;gradientColor=none;fillColor=#0d0d0d;" parent="1" vertex="1">
          <mxGeometry x="1325" y="405" width="10" height="10" as="geometry" />
        </mxCell>
        <mxCell id="FLPA2IYpirZjQdBNPpxb-18" value="" style="endArrow=classic;startArrow=classic;html=1;rounded=0;fillColor=#d5e8d4;strokeColor=#41841a;" parent="1" edge="1">
          <mxGeometry width="50" height="50" relative="1" as="geometry">
            <mxPoint x="1200" y="-60" as="sourcePoint" />
            <mxPoint x="1200" y="127" as="targetPoint" />
          </mxGeometry>
        </mxCell>
        <mxCell id="FLPA2IYpirZjQdBNPpxb-19" value="&lt;b&gt;&lt;font color=&quot;#049f1e&quot; style=&quot;font-size: 15px;&quot;&gt;a2&lt;/font&gt;&lt;/b&gt;" style="text;html=1;strokeColor=none;fillColor=none;align=center;verticalAlign=middle;whiteSpace=wrap;rounded=0;" parent="1" vertex="1">
          <mxGeometry x="1150" y="19.310000000000002" width="60" height="30" as="geometry" />
        </mxCell>
        <mxCell id="FLPA2IYpirZjQdBNPpxb-20" value="&lt;b&gt;&lt;font color=&quot;#049f1e&quot; style=&quot;font-size: 15px;&quot;&gt;a1&lt;/font&gt;&lt;/b&gt;" style="text;html=1;strokeColor=none;fillColor=none;align=center;verticalAlign=middle;whiteSpace=wrap;rounded=0;" parent="1" vertex="1">
          <mxGeometry x="1160" y="285" width="60" height="30" as="geometry" />
        </mxCell>
        <mxCell id="FLPA2IYpirZjQdBNPpxb-21" value="" style="endArrow=classic;html=1;rounded=0;strokeColor=#eb0505;endSize=9;startSize=10;jumpSize=15;strokeWidth=2;dashed=1;" parent="1" source="FLPA2IYpirZjQdBNPpxb-17" edge="1">
          <mxGeometry width="50" height="50" relative="1" as="geometry">
            <mxPoint x="1330" y="405" as="sourcePoint" />
            <mxPoint x="1420" y="345" as="targetPoint" />
          </mxGeometry>
        </mxCell>
        <mxCell id="FLPA2IYpirZjQdBNPpxb-22" value="" style="endArrow=classic;html=1;rounded=0;strokeColor=#eb0505;endSize=9;startSize=10;jumpSize=15;strokeWidth=2;exitX=1;exitY=0.5;exitDx=0;exitDy=0;" parent="1" source="FLPA2IYpirZjQdBNPpxb-17" edge="1">
          <mxGeometry width="50" height="50" relative="1" as="geometry">
            <mxPoint x="1340" y="410" as="sourcePoint" />
            <mxPoint x="1410" y="410" as="targetPoint" />
          </mxGeometry>
        </mxCell>
        <mxCell id="FLPA2IYpirZjQdBNPpxb-23" value="" style="endArrow=classic;html=1;rounded=0;strokeColor=#eb0505;endSize=9;startSize=10;jumpSize=15;strokeWidth=2;" parent="1" target="FLPA2IYpirZjQdBNPpxb-1" edge="1">
          <mxGeometry width="50" height="50" relative="1" as="geometry">
            <mxPoint x="1330" y="405" as="sourcePoint" />
            <mxPoint x="1420" y="420" as="targetPoint" />
          </mxGeometry>
        </mxCell>
        <mxCell id="FLPA2IYpirZjQdBNPpxb-24" value="&lt;b&gt;&lt;font color=&quot;#de0202&quot; style=&quot;font-size: 15px;&quot;&gt;x&lt;sub&gt;0&lt;/sub&gt;&lt;/font&gt;&lt;/b&gt;" style="text;html=1;strokeColor=none;fillColor=none;align=center;verticalAlign=middle;whiteSpace=wrap;rounded=0;" parent="1" vertex="1">
          <mxGeometry x="1390" y="385" width="60" height="30" as="geometry" />
        </mxCell>
        <mxCell id="FLPA2IYpirZjQdBNPpxb-25" value="&lt;b&gt;&lt;font color=&quot;#de0202&quot; style=&quot;font-size: 15px;&quot;&gt;z&lt;sub&gt;0&lt;/sub&gt;&lt;/font&gt;&lt;/b&gt;" style="text;html=1;strokeColor=none;fillColor=none;align=center;verticalAlign=middle;whiteSpace=wrap;rounded=0;" parent="1" vertex="1">
          <mxGeometry x="1280" y="345" width="60" height="30" as="geometry" />
        </mxCell>
        <mxCell id="FLPA2IYpirZjQdBNPpxb-26" value="&lt;b&gt;&lt;font color=&quot;#de0202&quot; style=&quot;font-size: 15px;&quot;&gt;y&lt;sub&gt;0&lt;/sub&gt;&lt;/font&gt;&lt;/b&gt;" style="text;html=1;strokeColor=none;fillColor=none;align=center;verticalAlign=middle;whiteSpace=wrap;rounded=0;" parent="1" vertex="1">
          <mxGeometry x="1360" y="335" width="60" height="30" as="geometry" />
        </mxCell>
        <mxCell id="FLPA2IYpirZjQdBNPpxb-27" value="&lt;b&gt;&lt;font color=&quot;#de0202&quot; style=&quot;font-size: 15px;&quot;&gt;y&lt;sub&gt;1&lt;/sub&gt;&lt;/font&gt;&lt;/b&gt;" style="text;html=1;strokeColor=none;fillColor=none;align=center;verticalAlign=middle;whiteSpace=wrap;rounded=0;" parent="1" vertex="1">
          <mxGeometry x="1280" y="65" width="60" height="30" as="geometry" />
        </mxCell>
        <mxCell id="FLPA2IYpirZjQdBNPpxb-28" value="&lt;b&gt;&lt;font color=&quot;#de0202&quot; style=&quot;font-size: 15px;&quot;&gt;x&lt;sub&gt;1&lt;/sub&gt;&lt;/font&gt;&lt;/b&gt;" style="text;html=1;strokeColor=none;fillColor=none;align=center;verticalAlign=middle;whiteSpace=wrap;rounded=0;" parent="1" vertex="1">
          <mxGeometry x="1350" y="132" width="60" height="30" as="geometry" />
        </mxCell>
        <mxCell id="FLPA2IYpirZjQdBNPpxb-29" value="" style="endArrow=none;html=1;rounded=0;strokeWidth=1;entryX=0.145;entryY=1;entryDx=0;entryDy=-4.35;entryPerimeter=0;strokeColor=#bcb9b9;" parent="1" target="FLPA2IYpirZjQdBNPpxb-1" edge="1">
          <mxGeometry width="50" height="50" relative="1" as="geometry">
            <mxPoint x="1240" y="345" as="sourcePoint" />
            <mxPoint x="1300" y="405" as="targetPoint" />
          </mxGeometry>
        </mxCell>
        <mxCell id="FLPA2IYpirZjQdBNPpxb-30" value="&lt;b&gt;&lt;font color=&quot;#919191&quot; style=&quot;font-size: 15px;&quot;&gt;0&lt;br&gt;&lt;/font&gt;&lt;/b&gt;" style="text;html=1;strokeColor=none;fillColor=none;align=center;verticalAlign=middle;whiteSpace=wrap;rounded=0;" parent="1" vertex="1">
          <mxGeometry x="1210" y="335" width="60" height="30" as="geometry" />
        </mxCell>
        <mxCell id="FLPA2IYpirZjQdBNPpxb-31" value="" style="endArrow=none;html=1;rounded=0;strokeWidth=1;strokeColor=#bcb9b9;" parent="1" edge="1">
          <mxGeometry width="50" height="50" relative="1" as="geometry">
            <mxPoint x="1250" y="225" as="sourcePoint" />
            <mxPoint x="1330" y="215" as="targetPoint" />
          </mxGeometry>
        </mxCell>
        <mxCell id="FLPA2IYpirZjQdBNPpxb-32" value="&lt;b&gt;&lt;font color=&quot;#919191&quot; style=&quot;font-size: 15px;&quot;&gt;1&lt;br&gt;&lt;/font&gt;&lt;/b&gt;" style="text;html=1;strokeColor=none;fillColor=none;align=center;verticalAlign=middle;whiteSpace=wrap;rounded=0;" parent="1" vertex="1">
          <mxGeometry x="1220" y="215" width="60" height="30" as="geometry" />
        </mxCell>
        <mxCell id="FLPA2IYpirZjQdBNPpxb-33" value="" style="curved=1;endArrow=classic;html=1;rounded=0;strokeColor=#020aed;" parent="1" edge="1">
          <mxGeometry width="50" height="50" relative="1" as="geometry">
            <mxPoint x="1340" y="335" as="sourcePoint" />
            <mxPoint x="1320" y="335" as="targetPoint" />
            <Array as="points">
              <mxPoint x="1330" y="325" />
            </Array>
          </mxGeometry>
        </mxCell>
        <mxCell id="FLPA2IYpirZjQdBNPpxb-34" value="&lt;b style=&quot;&quot;&gt;&lt;font color=&quot;#1c02de&quot;&gt;θ&lt;span style=&quot;font-size: 15px;&quot;&gt;&lt;sub style=&quot;&quot;&gt;1&lt;/sub&gt;&lt;/span&gt;&lt;/font&gt;&lt;/b&gt;" style="text;html=1;strokeColor=none;fillColor=none;align=center;verticalAlign=middle;whiteSpace=wrap;rounded=0;" parent="1" vertex="1">
          <mxGeometry x="1300" y="295" width="60" height="30" as="geometry" />
        </mxCell>
        <mxCell id="FLPA2IYpirZjQdBNPpxb-35" value="" style="endArrow=classic;html=1;rounded=0;strokeColor=#eb0505;endSize=9;startSize=10;jumpSize=15;strokeWidth=2;exitX=1;exitY=0.5;exitDx=0;exitDy=0;" parent="1" edge="1">
          <mxGeometry width="50" height="50" relative="1" as="geometry">
            <mxPoint x="1577" y="91" as="sourcePoint" />
            <mxPoint x="1652" y="91" as="targetPoint" />
          </mxGeometry>
        </mxCell>
        <mxCell id="FLPA2IYpirZjQdBNPpxb-36" value="" style="endArrow=classic;html=1;rounded=0;strokeColor=#eb0505;endSize=9;startSize=10;jumpSize=15;strokeWidth=2;exitX=1;exitY=0.5;exitDx=0;exitDy=0;" parent="1" edge="1">
          <mxGeometry width="50" height="50" relative="1" as="geometry">
            <mxPoint x="1577" y="91" as="sourcePoint" />
            <mxPoint x="1647" y="61" as="targetPoint" />
          </mxGeometry>
        </mxCell>
        <mxCell id="FLPA2IYpirZjQdBNPpxb-37" value="&lt;b style=&quot;&quot;&gt;&lt;font color=&quot;#1c02de&quot;&gt;θ&lt;span style=&quot;font-size: 15px;&quot;&gt;&lt;sub style=&quot;&quot;&gt;1&lt;/sub&gt;&lt;/span&gt;&lt;/font&gt;&lt;/b&gt;" style="text;html=1;strokeColor=none;fillColor=none;align=center;verticalAlign=middle;whiteSpace=wrap;rounded=0;" parent="1" vertex="1">
          <mxGeometry x="1637" y="61" width="60" height="30" as="geometry" />
        </mxCell>
        <mxCell id="FLPA2IYpirZjQdBNPpxb-38" value="" style="curved=1;endArrow=classic;html=1;rounded=0;strokeColor=#020aed;" parent="1" edge="1">
          <mxGeometry width="50" height="50" relative="1" as="geometry">
            <mxPoint x="1627" y="91" as="sourcePoint" />
            <mxPoint x="1617" y="71" as="targetPoint" />
            <Array as="points">
              <mxPoint x="1647" y="91" />
            </Array>
          </mxGeometry>
        </mxCell>
        <mxCell id="FLPA2IYpirZjQdBNPpxb-39" value="&lt;b&gt;&lt;font color=&quot;#de0202&quot; style=&quot;font-size: 15px;&quot;&gt;x&lt;sub&gt;0&lt;/sub&gt;&lt;/font&gt;&lt;/b&gt;" style="text;html=1;strokeColor=none;fillColor=none;align=center;verticalAlign=middle;whiteSpace=wrap;rounded=0;" parent="1" vertex="1">
          <mxGeometry x="1597" y="91" width="60" height="30" as="geometry" />
        </mxCell>
        <mxCell id="FLPA2IYpirZjQdBNPpxb-40" value="&lt;b&gt;&lt;font color=&quot;#de0202&quot; style=&quot;font-size: 15px;&quot;&gt;x&lt;sub&gt;1&lt;/sub&gt;&lt;/font&gt;&lt;/b&gt;" style="text;html=1;strokeColor=none;fillColor=none;align=center;verticalAlign=middle;whiteSpace=wrap;rounded=0;" parent="1" vertex="1">
          <mxGeometry x="1587" y="41" width="60" height="30" as="geometry" />
        </mxCell>
        <mxCell id="FLPA2IYpirZjQdBNPpxb-41" value="" style="endArrow=classic;html=1;rounded=0;strokeColor=#eb0505;endSize=9;startSize=10;jumpSize=15;strokeWidth=2;" parent="1" edge="1">
          <mxGeometry width="50" height="50" relative="1" as="geometry">
            <mxPoint x="1577" y="91" as="sourcePoint" />
            <mxPoint x="1577" y="11" as="targetPoint" />
          </mxGeometry>
        </mxCell>
        <mxCell id="FLPA2IYpirZjQdBNPpxb-42" value="" style="endArrow=classic;html=1;rounded=0;strokeColor=#eb0505;endSize=9;startSize=10;jumpSize=15;strokeWidth=2;" parent="1" edge="1">
          <mxGeometry width="50" height="50" relative="1" as="geometry">
            <mxPoint x="1577" y="91" as="sourcePoint" />
            <mxPoint x="1599" y="151" as="targetPoint" />
          </mxGeometry>
        </mxCell>
        <mxCell id="FLPA2IYpirZjQdBNPpxb-43" value="&lt;b&gt;&lt;font color=&quot;#de0202&quot; style=&quot;font-size: 15px;&quot;&gt;y&lt;sub&gt;0&lt;/sub&gt;&lt;/font&gt;&lt;/b&gt;" style="text;html=1;strokeColor=none;fillColor=none;align=center;verticalAlign=middle;whiteSpace=wrap;rounded=0;" parent="1" vertex="1">
          <mxGeometry x="1567" y="1" width="60" height="30" as="geometry" />
        </mxCell>
        <mxCell id="FLPA2IYpirZjQdBNPpxb-44" value="&lt;b&gt;&lt;font color=&quot;#de0202&quot; style=&quot;font-size: 15px;&quot;&gt;z&lt;sub&gt;1&lt;/sub&gt;&lt;/font&gt;&lt;/b&gt;" style="text;html=1;strokeColor=none;fillColor=none;align=center;verticalAlign=middle;whiteSpace=wrap;rounded=0;" parent="1" vertex="1">
          <mxGeometry x="1582" y="135" width="60" height="30" as="geometry" />
        </mxCell>
        <mxCell id="FLPA2IYpirZjQdBNPpxb-45" value="" style="ellipse;whiteSpace=wrap;html=1;aspect=fixed;strokeColor=#FF0000;" parent="1" vertex="1">
          <mxGeometry x="1567" y="91" width="10" height="10" as="geometry" />
        </mxCell>
        <mxCell id="FLPA2IYpirZjQdBNPpxb-46" value="" style="shape=waypoint;sketch=0;fillStyle=solid;size=6;pointerEvents=1;points=[];fillColor=none;resizable=0;rotatable=0;perimeter=centerPerimeter;snapToPoint=1;strokeColor=#e70404;" parent="1" vertex="1">
          <mxGeometry x="1562" y="86" width="20" height="20" as="geometry" />
        </mxCell>
        <mxCell id="FLPA2IYpirZjQdBNPpxb-47" value="&lt;b&gt;&lt;font color=&quot;#de0202&quot; style=&quot;font-size: 15px;&quot;&gt;z&lt;sub&gt;0&lt;/sub&gt;&lt;/font&gt;&lt;/b&gt;" style="text;html=1;strokeColor=none;fillColor=none;align=center;verticalAlign=middle;whiteSpace=wrap;rounded=0;" parent="1" vertex="1">
          <mxGeometry x="1527" y="91" width="60" height="30" as="geometry" />
        </mxCell>
        <mxCell id="FLPA2IYpirZjQdBNPpxb-48" value="&lt;b&gt;&lt;font color=&quot;#de0202&quot; style=&quot;font-size: 15px;&quot;&gt;y&lt;sub&gt;1&lt;/sub&gt;&lt;/font&gt;&lt;/b&gt;" style="text;html=1;strokeColor=none;fillColor=none;align=center;verticalAlign=middle;whiteSpace=wrap;rounded=0;" parent="1" vertex="1">
          <mxGeometry x="1527" y="105" width="60" height="30" as="geometry" />
        </mxCell>
        <mxCell id="FLPA2IYpirZjQdBNPpxb-49" value="" style="endArrow=classic;html=1;rounded=0;strokeColor=#eb0505;endSize=9;startSize=10;jumpSize=15;strokeWidth=2;exitX=1;exitY=0.5;exitDx=0;exitDy=0;" parent="1" edge="1">
          <mxGeometry width="50" height="50" relative="1" as="geometry">
            <mxPoint x="1808" y="123" as="sourcePoint" />
            <mxPoint x="1983" y="123" as="targetPoint" />
          </mxGeometry>
        </mxCell>
        <mxCell id="FLPA2IYpirZjQdBNPpxb-50" value="" style="endArrow=classic;html=1;rounded=0;strokeColor=#eb0505;endSize=9;startSize=10;jumpSize=15;strokeWidth=2;exitX=1;exitY=0.5;exitDx=0;exitDy=0;" parent="1" edge="1">
          <mxGeometry width="50" height="50" relative="1" as="geometry">
            <mxPoint x="1808" y="123" as="sourcePoint" />
            <mxPoint x="1983" y="83" as="targetPoint" />
          </mxGeometry>
        </mxCell>
        <mxCell id="FLPA2IYpirZjQdBNPpxb-51" value="&lt;b style=&quot;&quot;&gt;&lt;font color=&quot;#1c02de&quot;&gt;θ&lt;span style=&quot;font-size: 15px;&quot;&gt;&lt;sub style=&quot;&quot;&gt;2&lt;/sub&gt;&lt;/span&gt;&lt;/font&gt;&lt;/b&gt;" style="text;html=1;strokeColor=none;fillColor=none;align=center;verticalAlign=middle;whiteSpace=wrap;rounded=0;" parent="1" vertex="1">
          <mxGeometry x="1881" y="96" width="60" height="30" as="geometry" />
        </mxCell>
        <mxCell id="FLPA2IYpirZjQdBNPpxb-52" value="" style="curved=1;endArrow=classic;html=1;rounded=0;strokeColor=#020aed;" parent="1" edge="1">
          <mxGeometry width="50" height="50" relative="1" as="geometry">
            <mxPoint x="1898" y="123" as="sourcePoint" />
            <mxPoint x="1893" y="103" as="targetPoint" />
            <Array as="points">
              <mxPoint x="1903" y="113" />
            </Array>
          </mxGeometry>
        </mxCell>
        <mxCell id="FLPA2IYpirZjQdBNPpxb-53" value="&lt;b&gt;&lt;font color=&quot;#de0202&quot; style=&quot;font-size: 15px;&quot;&gt;x&lt;sub&gt;2&lt;/sub&gt;&lt;/font&gt;&lt;/b&gt;" style="text;html=1;strokeColor=none;fillColor=none;align=center;verticalAlign=middle;whiteSpace=wrap;rounded=0;" parent="1" vertex="1">
          <mxGeometry x="1963" y="74" width="60" height="30" as="geometry" />
        </mxCell>
        <mxCell id="FLPA2IYpirZjQdBNPpxb-54" value="&lt;b&gt;&lt;font color=&quot;#de0202&quot; style=&quot;font-size: 15px;&quot;&gt;x&lt;sub&gt;3&lt;/sub&gt;&lt;/font&gt;&lt;/b&gt;" style="text;html=1;strokeColor=none;fillColor=none;align=center;verticalAlign=middle;whiteSpace=wrap;rounded=0;" parent="1" vertex="1">
          <mxGeometry x="1953" y="33" width="60" height="30" as="geometry" />
        </mxCell>
        <mxCell id="FLPA2IYpirZjQdBNPpxb-55" value="" style="endArrow=classic;html=1;rounded=0;strokeColor=#eb0505;endSize=9;startSize=10;jumpSize=15;strokeWidth=2;" parent="1" edge="1">
          <mxGeometry width="50" height="50" relative="1" as="geometry">
            <mxPoint x="1808" y="123" as="sourcePoint" />
            <mxPoint x="1808" y="-47" as="targetPoint" />
          </mxGeometry>
        </mxCell>
        <mxCell id="FLPA2IYpirZjQdBNPpxb-56" value="" style="endArrow=classic;html=1;rounded=0;strokeColor=#eb0505;endSize=9;startSize=10;jumpSize=15;strokeWidth=2;" parent="1" edge="1">
          <mxGeometry width="50" height="50" relative="1" as="geometry">
            <mxPoint x="1808" y="123" as="sourcePoint" />
            <mxPoint x="1773" y="-37" as="targetPoint" />
          </mxGeometry>
        </mxCell>
        <mxCell id="FLPA2IYpirZjQdBNPpxb-57" value="&lt;b&gt;&lt;font color=&quot;#de0202&quot; style=&quot;font-size: 15px;&quot;&gt;y&lt;sub&gt;2&lt;/sub&gt;&lt;/font&gt;&lt;/b&gt;" style="text;html=1;strokeColor=none;fillColor=none;align=center;verticalAlign=middle;whiteSpace=wrap;rounded=0;" parent="1" vertex="1">
          <mxGeometry x="1730" y="-57" width="60" height="30" as="geometry" />
        </mxCell>
        <mxCell id="FLPA2IYpirZjQdBNPpxb-58" value="&lt;b&gt;&lt;font color=&quot;#de0202&quot; style=&quot;font-size: 15px;&quot;&gt;y&lt;sub&gt;1&lt;/sub&gt;&lt;/font&gt;&lt;/b&gt;" style="text;html=1;strokeColor=none;fillColor=none;align=center;verticalAlign=middle;whiteSpace=wrap;rounded=0;" parent="1" vertex="1">
          <mxGeometry x="1794" y="-65" width="60" height="30" as="geometry" />
        </mxCell>
        <mxCell id="FLPA2IYpirZjQdBNPpxb-59" value="" style="ellipse;whiteSpace=wrap;html=1;aspect=fixed;strokeColor=#FF0000;" parent="1" vertex="1">
          <mxGeometry x="1794" y="127" width="10" height="10" as="geometry" />
        </mxCell>
        <mxCell id="FLPA2IYpirZjQdBNPpxb-60" value="" style="shape=waypoint;sketch=0;fillStyle=solid;size=6;pointerEvents=1;points=[];fillColor=none;resizable=0;rotatable=0;perimeter=centerPerimeter;snapToPoint=1;strokeColor=#e70404;" parent="1" vertex="1">
          <mxGeometry x="1789" y="122" width="20" height="20" as="geometry" />
        </mxCell>
        <mxCell id="FLPA2IYpirZjQdBNPpxb-61" value="&lt;b&gt;&lt;font color=&quot;#de0202&quot; style=&quot;font-size: 15px;&quot;&gt;z&lt;sub&gt;2&lt;/sub&gt;&lt;/font&gt;&lt;/b&gt;" style="text;html=1;strokeColor=none;fillColor=none;align=center;verticalAlign=middle;whiteSpace=wrap;rounded=0;" parent="1" vertex="1">
          <mxGeometry x="1754" y="127" width="60" height="30" as="geometry" />
        </mxCell>
        <mxCell id="FLPA2IYpirZjQdBNPpxb-62" value="&lt;b&gt;&lt;font color=&quot;#de0202&quot; style=&quot;font-size: 15px;&quot;&gt;z&lt;sub&gt;3&lt;/sub&gt;&lt;/font&gt;&lt;/b&gt;" style="text;html=1;strokeColor=none;fillColor=none;align=center;verticalAlign=middle;whiteSpace=wrap;rounded=0;" parent="1" vertex="1">
          <mxGeometry x="1754" y="137" width="60" height="30" as="geometry" />
        </mxCell>
        <mxCell id="FLPA2IYpirZjQdBNPpxb-63" value="" style="shape=cylinder3;whiteSpace=wrap;html=1;boundedLbl=1;backgroundOutline=1;size=15;rotation=-135;" parent="1" vertex="1">
          <mxGeometry x="1297" y="77" width="60" height="120" as="geometry" />
        </mxCell>
        <mxCell id="FLPA2IYpirZjQdBNPpxb-64" value="" style="ellipse;whiteSpace=wrap;html=1;aspect=fixed;gradientColor=none;fillColor=#0d0d0d;" parent="1" vertex="1">
          <mxGeometry x="1325" y="132" width="10" height="10" as="geometry" />
        </mxCell>
        <mxCell id="FLPA2IYpirZjQdBNPpxb-65" value="" style="endArrow=classic;html=1;rounded=0;strokeColor=#eb0505;endSize=9;startSize=10;jumpSize=15;strokeWidth=2;dashed=1;exitX=0;exitY=1;exitDx=0;exitDy=0;" parent="1" source="FLPA2IYpirZjQdBNPpxb-64" edge="1">
          <mxGeometry width="50" height="50" relative="1" as="geometry">
            <mxPoint x="1330" y="145" as="sourcePoint" />
            <mxPoint x="1270" y="195" as="targetPoint" />
          </mxGeometry>
        </mxCell>
        <mxCell id="FLPA2IYpirZjQdBNPpxb-66" value="" style="endArrow=classic;html=1;rounded=0;strokeColor=#eb0505;endSize=9;startSize=10;jumpSize=15;strokeWidth=2;exitX=1;exitY=0.5;exitDx=0;exitDy=0;" parent="1" source="FLPA2IYpirZjQdBNPpxb-64" edge="1">
          <mxGeometry width="50" height="50" relative="1" as="geometry">
            <mxPoint x="1340" y="137" as="sourcePoint" />
            <mxPoint x="1405" y="137" as="targetPoint" />
          </mxGeometry>
        </mxCell>
        <mxCell id="FLPA2IYpirZjQdBNPpxb-67" value="" style="endArrow=classic;html=1;rounded=0;strokeColor=#eb0505;endSize=9;startSize=10;jumpSize=15;strokeWidth=2;exitX=0.5;exitY=0;exitDx=0;exitDy=0;" parent="1" source="FLPA2IYpirZjQdBNPpxb-64" edge="1">
          <mxGeometry width="50" height="50" relative="1" as="geometry">
            <mxPoint x="1325" y="137" as="sourcePoint" />
            <mxPoint x="1330" y="72" as="targetPoint" />
          </mxGeometry>
        </mxCell>
        <mxCell id="FLPA2IYpirZjQdBNPpxb-68" value="&lt;b&gt;&lt;font style=&quot;font-size: 15px;&quot;&gt;A&lt;/font&gt;&lt;/b&gt;" style="text;html=1;strokeColor=none;fillColor=none;align=center;verticalAlign=middle;whiteSpace=wrap;rounded=0;" parent="1" vertex="1">
          <mxGeometry x="1290" y="102" width="60" height="30" as="geometry" />
        </mxCell>
        <mxCell id="FLPA2IYpirZjQdBNPpxb-69" value="" style="shape=cylinder3;whiteSpace=wrap;html=1;boundedLbl=1;backgroundOutline=1;size=15;rotation=-135;" parent="1" vertex="1">
          <mxGeometry x="1298" y="-120" width="60" height="120" as="geometry" />
        </mxCell>
        <mxCell id="FLPA2IYpirZjQdBNPpxb-70" value="" style="ellipse;whiteSpace=wrap;html=1;aspect=fixed;gradientColor=none;fillColor=#0d0d0d;" parent="1" vertex="1">
          <mxGeometry x="1325" y="-66" width="10" height="10" as="geometry" />
        </mxCell>
        <mxCell id="FLPA2IYpirZjQdBNPpxb-71" value="" style="endArrow=none;html=1;rounded=0;exitX=1;exitY=0.5;exitDx=0;exitDy=0;" parent="1" edge="1">
          <mxGeometry width="50" height="50" relative="1" as="geometry">
            <mxPoint x="1334" y="-61" as="sourcePoint" />
            <mxPoint x="1529" y="-61" as="targetPoint" />
          </mxGeometry>
        </mxCell>
        <mxCell id="FLPA2IYpirZjQdBNPpxb-72" value="" style="ellipse;whiteSpace=wrap;html=1;aspect=fixed;gradientColor=none;fillColor=#0d0d0d;" parent="1" vertex="1">
          <mxGeometry x="1527" y="-67" width="10" height="10" as="geometry" />
        </mxCell>
        <mxCell id="FLPA2IYpirZjQdBNPpxb-73" value="&lt;b&gt;&lt;font style=&quot;font-size: 15px;&quot;&gt;B&lt;/font&gt;&lt;/b&gt;" style="text;html=1;strokeColor=none;fillColor=none;align=center;verticalAlign=middle;whiteSpace=wrap;rounded=0;" parent="1" vertex="1">
          <mxGeometry x="1287" y="-84" width="60" height="29" as="geometry" />
        </mxCell>
        <mxCell id="FLPA2IYpirZjQdBNPpxb-74" value="" style="endArrow=classic;startArrow=classic;html=1;rounded=0;fillColor=#d5e8d4;strokeColor=#41841a;" parent="1" edge="1">
          <mxGeometry width="50" height="50" relative="1" as="geometry">
            <mxPoint x="1527" y="-169.31" as="sourcePoint" />
            <mxPoint x="1327" y="-170" as="targetPoint" />
          </mxGeometry>
        </mxCell>
        <mxCell id="FLPA2IYpirZjQdBNPpxb-75" value="&lt;b&gt;&lt;font color=&quot;#049f1e&quot; style=&quot;font-size: 15px;&quot;&gt;a3&lt;/font&gt;&lt;/b&gt;" style="text;html=1;strokeColor=none;fillColor=none;align=center;verticalAlign=middle;whiteSpace=wrap;rounded=0;" parent="1" vertex="1">
          <mxGeometry x="1390.0000000000002" y="-200" width="60" height="30" as="geometry" />
        </mxCell>
        <mxCell id="FLPA2IYpirZjQdBNPpxb-76" value="&lt;b&gt;&lt;font color=&quot;#de0202&quot; style=&quot;font-size: 15px;&quot;&gt;z&lt;sub&gt;1&lt;/sub&gt;&lt;/font&gt;&lt;/b&gt;" style="text;html=1;strokeColor=none;fillColor=none;align=center;verticalAlign=middle;whiteSpace=wrap;rounded=0;" parent="1" vertex="1">
          <mxGeometry x="1237" y="162" width="60" height="30" as="geometry" />
        </mxCell>
        <mxCell id="FLPA2IYpirZjQdBNPpxb-77" value="&lt;b&gt;&lt;font color=&quot;#de0202&quot; style=&quot;font-size: 15px;&quot;&gt;y&lt;sub&gt;2&lt;/sub&gt;&lt;/font&gt;&lt;/b&gt;" style="text;html=1;strokeColor=none;fillColor=none;align=center;verticalAlign=middle;whiteSpace=wrap;rounded=0;" parent="1" vertex="1">
          <mxGeometry x="1277" y="-132" width="60" height="30" as="geometry" />
        </mxCell>
        <mxCell id="FLPA2IYpirZjQdBNPpxb-78" value="&lt;b&gt;&lt;font color=&quot;#de0202&quot; style=&quot;font-size: 15px;&quot;&gt;x&lt;sub&gt;2&lt;/sub&gt;&lt;/font&gt;&lt;/b&gt;" style="text;html=1;strokeColor=none;fillColor=none;align=center;verticalAlign=middle;whiteSpace=wrap;rounded=0;" parent="1" vertex="1">
          <mxGeometry x="1350" y="-66" width="60" height="30" as="geometry" />
        </mxCell>
        <mxCell id="FLPA2IYpirZjQdBNPpxb-79" value="" style="endArrow=classic;html=1;rounded=0;strokeColor=#eb0505;endSize=9;startSize=10;jumpSize=15;strokeWidth=2;dashed=1;exitX=0;exitY=1;exitDx=0;exitDy=0;" parent="1" source="FLPA2IYpirZjQdBNPpxb-70" edge="1">
          <mxGeometry width="50" height="50" relative="1" as="geometry">
            <mxPoint x="1334" y="-65" as="sourcePoint" />
            <mxPoint x="1277" y="-12" as="targetPoint" />
          </mxGeometry>
        </mxCell>
        <mxCell id="FLPA2IYpirZjQdBNPpxb-80" value="" style="endArrow=classic;html=1;rounded=0;strokeColor=#eb0505;endSize=9;startSize=10;jumpSize=15;strokeWidth=2;exitX=1;exitY=0.5;exitDx=0;exitDy=0;" parent="1" edge="1">
          <mxGeometry width="50" height="50" relative="1" as="geometry">
            <mxPoint x="1335" y="-61" as="sourcePoint" />
            <mxPoint x="1405" y="-61" as="targetPoint" />
          </mxGeometry>
        </mxCell>
        <mxCell id="FLPA2IYpirZjQdBNPpxb-81" value="" style="endArrow=classic;html=1;rounded=0;strokeColor=#eb0505;endSize=9;startSize=10;jumpSize=15;strokeWidth=2;exitX=0.5;exitY=0;exitDx=0;exitDy=0;" parent="1" edge="1">
          <mxGeometry width="50" height="50" relative="1" as="geometry">
            <mxPoint x="1330" y="-66" as="sourcePoint" />
            <mxPoint x="1330" y="-126" as="targetPoint" />
          </mxGeometry>
        </mxCell>
        <mxCell id="FLPA2IYpirZjQdBNPpxb-82" value="&lt;b&gt;&lt;font color=&quot;#de0202&quot; style=&quot;font-size: 15px;&quot;&gt;z&lt;sub&gt;2&lt;/sub&gt;&lt;/font&gt;&lt;/b&gt;" style="text;html=1;strokeColor=none;fillColor=none;align=center;verticalAlign=middle;whiteSpace=wrap;rounded=0;" parent="1" vertex="1">
          <mxGeometry x="1238" y="-36" width="60" height="30" as="geometry" />
        </mxCell>
        <mxCell id="FLPA2IYpirZjQdBNPpxb-83" value="&lt;b&gt;&lt;font color=&quot;#de0202&quot; style=&quot;font-size: 15px;&quot;&gt;y&lt;sub&gt;3&lt;/sub&gt;&lt;/font&gt;&lt;/b&gt;" style="text;html=1;strokeColor=none;fillColor=none;align=center;verticalAlign=middle;whiteSpace=wrap;rounded=0;" parent="1" vertex="1">
          <mxGeometry x="1479" y="-133.5" width="60" height="30" as="geometry" />
        </mxCell>
        <mxCell id="FLPA2IYpirZjQdBNPpxb-84" value="&lt;b&gt;&lt;font color=&quot;#de0202&quot; style=&quot;font-size: 15px;&quot;&gt;x&lt;sub&gt;3&lt;/sub&gt;&lt;/font&gt;&lt;/b&gt;" style="text;html=1;strokeColor=none;fillColor=none;align=center;verticalAlign=middle;whiteSpace=wrap;rounded=0;" parent="1" vertex="1">
          <mxGeometry x="1552" y="-67.5" width="60" height="30" as="geometry" />
        </mxCell>
        <mxCell id="FLPA2IYpirZjQdBNPpxb-85" value="" style="endArrow=classic;html=1;rounded=0;strokeColor=#eb0505;endSize=9;startSize=10;jumpSize=15;strokeWidth=2;dashed=1;exitX=0;exitY=1;exitDx=0;exitDy=0;" parent="1" edge="1">
          <mxGeometry width="50" height="50" relative="1" as="geometry">
            <mxPoint x="1528" y="-58.5" as="sourcePoint" />
            <mxPoint x="1479" y="-13.5" as="targetPoint" />
          </mxGeometry>
        </mxCell>
        <mxCell id="FLPA2IYpirZjQdBNPpxb-86" value="" style="endArrow=classic;html=1;rounded=0;strokeColor=#eb0505;endSize=9;startSize=10;jumpSize=15;strokeWidth=2;exitX=1;exitY=0.5;exitDx=0;exitDy=0;" parent="1" edge="1">
          <mxGeometry width="50" height="50" relative="1" as="geometry">
            <mxPoint x="1537" y="-62.5" as="sourcePoint" />
            <mxPoint x="1607" y="-62.5" as="targetPoint" />
          </mxGeometry>
        </mxCell>
        <mxCell id="FLPA2IYpirZjQdBNPpxb-87" value="" style="endArrow=classic;html=1;rounded=0;strokeColor=#eb0505;endSize=9;startSize=10;jumpSize=15;strokeWidth=2;exitX=0.5;exitY=0;exitDx=0;exitDy=0;" parent="1" edge="1">
          <mxGeometry width="50" height="50" relative="1" as="geometry">
            <mxPoint x="1532" y="-67.5" as="sourcePoint" />
            <mxPoint x="1532" y="-127.5" as="targetPoint" />
          </mxGeometry>
        </mxCell>
        <mxCell id="FLPA2IYpirZjQdBNPpxb-88" value="&lt;b&gt;&lt;font color=&quot;#de0202&quot; style=&quot;font-size: 15px;&quot;&gt;z&lt;sub&gt;3&lt;/sub&gt;&lt;/font&gt;&lt;/b&gt;" style="text;html=1;strokeColor=none;fillColor=none;align=center;verticalAlign=middle;whiteSpace=wrap;rounded=0;" parent="1" vertex="1">
          <mxGeometry x="1440" y="-37.5" width="60" height="30" as="geometry" />
        </mxCell>
        <mxCell id="FLPA2IYpirZjQdBNPpxb-89" value="" style="endArrow=none;html=1;rounded=0;strokeWidth=1;strokeColor=#bcb9b9;" parent="1" edge="1">
          <mxGeometry width="50" height="50" relative="1" as="geometry">
            <mxPoint x="1250" y="30" as="sourcePoint" />
            <mxPoint x="1329" y="17" as="targetPoint" />
          </mxGeometry>
        </mxCell>
        <mxCell id="FLPA2IYpirZjQdBNPpxb-90" value="&lt;b&gt;&lt;font color=&quot;#919191&quot; style=&quot;font-size: 15px;&quot;&gt;2&lt;br&gt;&lt;/font&gt;&lt;/b&gt;" style="text;html=1;strokeColor=none;fillColor=none;align=center;verticalAlign=middle;whiteSpace=wrap;rounded=0;" parent="1" vertex="1">
          <mxGeometry x="1220" y="20" width="60" height="30" as="geometry" />
        </mxCell>
        <mxCell id="FLPA2IYpirZjQdBNPpxb-91" value="" style="endArrow=none;html=1;rounded=0;strokeWidth=1;strokeColor=#bcb9b9;" parent="1" edge="1">
          <mxGeometry width="50" height="50" relative="1" as="geometry">
            <mxPoint x="1426" y="-62" as="sourcePoint" />
            <mxPoint x="1455" y="-122" as="targetPoint" />
          </mxGeometry>
        </mxCell>
        <mxCell id="FLPA2IYpirZjQdBNPpxb-92" value="&lt;b&gt;&lt;font color=&quot;#919191&quot; style=&quot;font-size: 15px;&quot;&gt;3&lt;br&gt;&lt;/font&gt;&lt;/b&gt;" style="text;html=1;strokeColor=none;fillColor=none;align=center;verticalAlign=middle;whiteSpace=wrap;rounded=0;" parent="1" vertex="1">
          <mxGeometry x="1435" y="-137" width="60" height="30" as="geometry" />
        </mxCell>
        <mxCell id="FLPA2IYpirZjQdBNPpxb-93" value="" style="endArrow=classic;html=1;rounded=0;strokeColor=#eb0505;endSize=9;startSize=10;jumpSize=15;strokeWidth=2;" parent="1" edge="1">
          <mxGeometry width="50" height="50" relative="1" as="geometry">
            <mxPoint x="1807" y="123" as="sourcePoint" />
            <mxPoint x="1973" y="43" as="targetPoint" />
          </mxGeometry>
        </mxCell>
        <mxCell id="FLPA2IYpirZjQdBNPpxb-94" value="&lt;b style=&quot;&quot;&gt;&lt;font color=&quot;#1c02de&quot;&gt;θ&lt;span style=&quot;font-size: 15px;&quot;&gt;&lt;sub style=&quot;&quot;&gt;3&lt;/sub&gt;&lt;/span&gt;&lt;/font&gt;&lt;/b&gt;" style="text;html=1;strokeColor=none;fillColor=none;align=center;verticalAlign=middle;whiteSpace=wrap;rounded=0;" parent="1" vertex="1">
          <mxGeometry x="1876" y="74" width="60" height="30" as="geometry" />
        </mxCell>
        <mxCell id="FLPA2IYpirZjQdBNPpxb-95" value="" style="curved=1;endArrow=classic;html=1;rounded=0;strokeColor=#020aed;" parent="1" edge="1">
          <mxGeometry width="50" height="50" relative="1" as="geometry">
            <mxPoint x="1893" y="103" as="sourcePoint" />
            <mxPoint x="1888" y="83" as="targetPoint" />
            <Array as="points">
              <mxPoint x="1898" y="93" />
            </Array>
          </mxGeometry>
        </mxCell>
        <mxCell id="FLPA2IYpirZjQdBNPpxb-96" value="&lt;b&gt;&lt;font color=&quot;#de0202&quot; style=&quot;font-size: 15px;&quot;&gt;z&lt;sub&gt;1&lt;/sub&gt;&lt;/font&gt;&lt;/b&gt;" style="text;html=1;strokeColor=none;fillColor=none;align=center;verticalAlign=middle;whiteSpace=wrap;rounded=0;" parent="1" vertex="1">
          <mxGeometry x="1754" y="117" width="60" height="30" as="geometry" />
        </mxCell>
        <mxCell id="FLPA2IYpirZjQdBNPpxb-97" value="&lt;b&gt;&lt;font color=&quot;#de0202&quot; style=&quot;font-size: 15px;&quot;&gt;x&lt;sub&gt;1&lt;/sub&gt;&lt;/font&gt;&lt;/b&gt;" style="text;html=1;strokeColor=none;fillColor=none;align=center;verticalAlign=middle;whiteSpace=wrap;rounded=0;" parent="1" vertex="1">
          <mxGeometry x="1963" y="118" width="60" height="30" as="geometry" />
        </mxCell>
        <mxCell id="FLPA2IYpirZjQdBNPpxb-98" value="" style="shape=image;verticalLabelPosition=bottom;labelBackgroundColor=default;verticalAlign=top;aspect=fixed;imageAspect=0;image=data:image/png,iVBORw0KGgoAAAANSUhEUgAAAP8AAACSCAYAAACKYhxOAAAZqElEQVR4nO2dcWhb173HPx57IEPKZEjhGlpiBRcm0zArrGAZyhKF/GEFD+rgB5HIssztH62zrVROoHWa2nn2Bp6SjCzug81ewguSoSFK94YdaPF1Sh5yocHy6LAGKZZHChK0II0EJGjYeX9Ijm1FsmRHuleJfh8QyLpH9/780/nec+455/c7DUophSAIdcf3zDZAEARzEPELQp0i4heEOkXELwh1iohfEOoUEX+Fefvtt2lpaSGVSpltilBHpFIprFYrQ0NDZX+nQab6KsfKygo2m43Lly/z85//3GxzhDrjypUrHD9+nFgsRktLS8nyIv4Ksm/fPgBu3bq1tS8+SJF6uPqHBavVsvWLPwS+v/WvbYVMKkVm9Q+Lle2Yafr1DfBTuVTDn/v27aOpqYkbN26ULqyEihCJRBSg5ubmyv5O8suA8nXZFLDx1epWvuCSSpc8Q1rF5wNq5Ihdab0BFX+Sf2AzO7+4pDwva3l22pT75HW1/F2VLrp2dRW+2K/crXk+QlP2IyPq+pfJ0qf4ZklN584xMl9te0tTTX/euHFDASoSiZQsK+KvEMeOHVO7du0qs3RaLf3Ro7TcD2/r6leDY37lH/Mr33GnsuU+d747qwpV7fS9sAqc9Si7tq7yVEn86fkR5cyJzfXGoJoITavARZ/qyYlRO3q9ajcdlV5WE0dzItHsynMy6yP/2KDqf3TTtKm+j5Yf/+53SbU0c2lduezLbPEb4c9du3apY8eOlSwn4q8AyWRSAerChQtllU9/4ssKX3OpkdsF5B0LKI+WrSCejzZWhYXfrGsxWp2qr9ddRfEvq4munB3BPIHdD6uRjuyxQb10H2U7LJx3Zv+3jhEVLuCm5CeDOSH1qMC9dQfi15VnfQ+h26Pc7bUgfmP8+cEHH6hyOvUi/gqwla6WUgvK315Y2OtJhvqylbfdrxbWfR4+a1PuN/0qMB/PPhbMj1RP/HcnlKuADY/ZeHK2jEeUrbLqJ5Tvk2JnT6vZd7M3Q8f5dRbeCyjPyx7l+/O0WvpGKaXiKtBbA+I3yJ+rj6A3btzYtJxM9VWAW7du8YMf/ID29vbShT+fwb8ItA8w0KsVLWbt8uADWJxh4au1z53vLzP9oQ9Ph0a1x9sSER0doLsTRyEb9zhxAXwaIVrxq2fILGbfNT1X7D+10Ob04jrooike59Hk6gseAl8G8B93Y99ZccO2jVH+XK2Hi4uLm5arkXHPp5vFxcXyhA9E5q+TgKIV4BGWvfTps7iBZuuT27gd4l9nq6DrxSI3qZ3N2AF9Mbk2al0xbNh6gWswfTvCYEdhb2ndfma7K37xqmCkP3/yk5+UnHWSlr8CrKyslDWvCpBJRgDoeal4q5/Fin2/C9d+l2mtV+ZB1lbrjsbCBaxNNAMQJfZ1pa+u4T7ajwbMn3Jz4J0gkW8rfQ1jMdKfVquVf/3rX5uWEfFXgH/+859lij9B7B+5t98vUgGER1i7/eh/7sNGAv2Cl73PN9P20xOcm9KJPuU3gmrT3t5estsv4hdqGAv24xMsx2e59KYbGwmifx1nwHOAtuebafOMEvq7LKPeLiL+CvG974krq4bmov/DaZbTSZb0AP7VG8HUaQ7v2cvr12JmW1hzNDQ0lCwjNdZQNGw/zL19mDbVkqcSixX7fg++D6dZTseZ/Y0bjRiT/+ll9E7lhxyfdUT8BqO96AIg9GWsxIhuiuicjj5n3vOtpmVtTT0ocqNKxFkCYC+2F4yyKodFw/XudQInNWCe0x+FqzDjUFlqzZ8ifoOx7XGhAVydJ7JZwVSYcdcBDrhGCZv0WNuk2QHQ7xa5UT1IZqctD2qUmrvYKompwzQ0NNBwSt9E1BbaHJ3ZtysJav3p30x/FkLEbzQdbgY6gMRp/FeLP6um5kKMA3R5cLUaZdxGrHYHboCrOuECtTV2O4QOaK+2YavwtTXb3txNcobwg+Ll0g9ykt9prfqipyfFTH8WQsRvOA76L4zgBEI/8zL6f4+3V6m/T9L/1iSg0f/mYUMqQkFaD+HtBRKjnLuct+YspTN5cQZwMNDtrPy1Ozyc6wUS5/C+NUm0QLOe+cckp8/ogEZ/VycmrYUqHzP9WQBZ4WcClo5BAsElOj1BTr/axGRHHz09dpqJE705w/RclAQart+E8HebWaU1PGMBpm97Cb7Vxu45H/2vNMP9GPrUODNfgfPsOP3lLW7cIjY8H86y9K2X0auv03Z1FGevG9crNpo2+Amcv5zEZ6qfysVMfxbgCeIHhByAGh4e3vL3isXz27r61SW9zDCdagb25EhHC9ip2ZVnLFww5LiifBdX4eBIgfh3lK2jT/lnlssIgqmRwJ4cRvhzaGioZGSfZPKpAA0NDQwPD3PmzJntnSCTIrX6DGhChpyyWZdxyGI14Rl7fcajWvZTuVTRn8PDwwwNDbGZvKXbXws8LRV5h9Xc52qzr19pTP5/ZMBPEOoUEb8g1CkifkGoU0T8glCniPgFoU4R8QtCnSLiF4Q6RcQvCHWKiF8Q6hQRvyDUKSJ+QahTRPyCUKeI+AWhThHxC0KdIuIXhDpFxC8IdYok86gBMqnUWirn7Sb2eEjVf82K2Fk5a0il1qXArWG/FcNsf0rLbxop5v9wgkMvNdDY1ETT6qtxC3vQfRtlJneO0TtVtPTOON49zXl27ubQqRCxh6W/X1EeJtB/56WtuXHNlkd+O8d8ORucGOS3YtSMPyuUL7CuYasJPNPLauKotpa48aRf+cf8yj82qPofJXa0qb6Plh//7ndJtTRzaV256iamTM+PKCco0JTrjUE1EZpWgYs+1dOava529HrVEoc+xjezarCDx/32fr9yryb41Dxq4m6BlJ4G+60YRvmznASeIv4KsFXxL5x3Zitfx4gKF0jXmvxkMFdBelTg3roD8evK86jiasre7VHu9mpW4mU10ZW9lieYdyO6H1YjHdljg3rp/LmVswVlOx5Qy9/lH0+q8Nk1vy6sN8lwvxXDOH+K+A1ia+JfUP5cxfN9UuxHTqvZd7MtmeP8wtrH9wLK87JH+f48rZa+UarqKanvTigXKNr9aqHA4WSoLyuok7NlpM9+Mh5dK1/YG1jzbf//rrurGu23Yhjoz3LEL8/8hpMhs5h91/RcsREeC21OL66DLpri8bU96F7wEPgygP+4G/vO6luaiOjoAN2dOAoct+5x4gL4NEK0wPEKWsLM1CQAfaf6cRQdGHPQ81Z2M8zx2wtrg2kG+60YtePPLDLabzg2bL3ANZi+HWGwo1A1AK3bz2y3sZblE/86WwVdLxbZNnJnM3ZAX0xWd4fc1ALhawA9uBybJ7tu7vIzqyfhubZqWrQtasafOaTlNxwN99F+NGD+lJsD7wSJmLQFdykyD7L7CFt3NBYuYG2iGYAosa+raEgqRRwAO7aWzYtaXnDg2u/C9WOt5jburBl/5hDxm4C124/+5z5sJNAveNn7fDNtPz3BuSmdaI3eCEwlESMEQBHRCNtCxG8KFuzHJ1iOz3LpTTc2EkT/Os6A5wBtz29hnv8ZIpNKkcp/bbI1t/DkiPjNRHPR/+E0y+kkS3oA/+qNYOo0h/fs5fVrMbMtNIh5zq1f8LL6ujBvtmHPNDLgVwtYrNj3e7Dv9+A7n0C/0If3vRkm/9OL7QudwR/X2tNrpdFwjPnx53/8w9zAmGajBwiRNtiuZxsRf61h0XC9e51A0saB381z+qMwvh+7TBm80jQXoJN6UER0iThLAOzF9sKTXMmG+6QPd3FDsAEwz9JX4GwtfqbM1xHCd7Oj/Z01NuhnnD/LQ7r9BpOYOkxDQwMNp/RNpnMstDk6s29XEpj19N+k2QHQ78YK2/ogSQLgoEaRyavKYGljby+AzswXiU2LRq/1ccB1gAMfLVXTom1RM/7MIeI3GM22N/vDXp0hvMmAVvpBTvI7K7tv+1aw2h3Z1viqTrhAbY3dDqED2qttuZa5WqxNj4bGLjFf1G8R9P+JABqDXZ011epDLfkzi4jfaDo8nOsFEufwvjVJtECznvnHJKfP6IBGf1eneXu4tx7C2wskRjl3OW/NWUpn8uIM4GCg21l1U6zdPs4d1WBxlJ63go9Hvz1MMPNePwOLQMcAh/fXmvSpKX+CGc/8mRRrYdgWrNsJYjYxBvvJseH5cJalb72MXn2dtqujOHvduF6x0USc6M0ZpueiJADnLyfxdZsmfUDDMxZg+raX4Ftt7J7z0f9KM9yPoU+NM/MVOM+O099uhC02PB+GiN3t5PRVL7s/HcH9Wg8uWxPJWBj90xDzXwGtfVyf8hVcPms+teRPygvpjQd7NoRBlvXqDWwMTfxuWV0/6Va2vHLayx516YsCoW35pOMqHBxRnpc11RM0LIi0LNhqSK9SSn239v/k+87W0af8M8tlBHcYE6CSjgaULy8UFs2uPGNhVcYvV1m+i6vZMY+yazxuz9nraqksg0wK7MlhhD/LCexpUEqpUjeIxF8H8P4hkvdpmtin88QAW4cL23N5h1/2ETjvzg1cxAj+rBPv1QS09uD71WFcL6QJ3wwy+SedBE5GCk5pZUh8HmLy4giXprKtIUBPMM71I0YMiZRHQ0MDw8PDnDlzZnsneJAitdqNNT1Dziass9NiNW8sYpW1TDjb7EGaTRX9OTw8zNDQEJvKe/v3lrAaKTMhQlofVNpq/Pr9jceWg57ssa4JtTHCeUGNaBtbw55cPPcz0fILQhWpkZDeDOGboyTIhmM6d2w8ajsywEA7cDOI/tXG77HDTf9YgPC9NMvzEwwYMw4iCHWBAcNmUeavQvFwTDuOg8CiTiSagtbVMk4G705X3zxBqFOqL/5UnHgCwIZW8DHdQlOzA4gQTyWhKhNbGRJ3wizdL1GsBleFCUK1qL74H6zGYjfRWERVzZoNiBBaSUBVljek0McO4L1WolhvgPhHHkNWVwmC2Ty1s+Vbw4rr1Cyzb5Yo9lybeQtqBMFg6kT8FrQfu6RFF4R1yPJeQahT6qTlTzF/eZJwqRRZOzvpO+6Urr9QF1Rf/DtXY7GTpDNQaCg9vhIGoKe1WrFMGWI3BxgoY8DPe1wWEwj1QfXFb2miuR1YjGQzkj6WiCFDMplduGvbWa02Vwb8BCEfA7r9dhxdGizqhG7H6Mtv3TNh9NwioL32as2wy4CfIORjwICfhc6fnsABzLw3zkxe/HpsapzRBHDci9uA1EWCIGQxZMDP0uFj/Ow0nWfOccgeoe8NN/bnIB6ZJDAVBc1D4EyPdLkFwUAMGu234Hx/hrCln77zQSb/S390xNblI3B+BE+JnVgEQagsTyB+J4NKMVh2eSvOkwGWTk6SWk3l830r1h2bf2vDFd9XqPe3aKYgCAUxYZ7/KU28IAjPGHWyyOcppRL5DqtFTeVRzKz1JgHLDiuWmrHtCamin2V5by3yMEbo1CF2N67fvqqR5j1exu+YuIdfJsH81CjePc0cvrZ5/nyjiN0Y4NBLjRu2+Wp8sQ3vHyKm7XdQCVL/mGH8rUPs/o9RqrVp2bNyf3yGiBH8RbF8h0FOvBIjZegWXkXyKBp09c2ITXnp9ARJYKPnpI/D+5tJz88Q/NMkwV/tJfZgAf1dx9OTn+HbKDNT44xfzGbyzdJZvesZlFLsmYYK5vDbXr7DalHDeRTTs2pQQ4FTjczn5TmOBZRHQ4FbTdw1x7ytEv/IsyGTr/uIWzlAwYgKb+N8NZLDTyif7eY7rJ49tZpHMXN7Jrc4bID+jry2vcXDwDsOYIbg3FOy0/FDsB/xMTGzRPLeEtNj3qrv2iPd/ppiu/kOq0Xt5lGM3gkA0LPfUXBxmL3dBUTQI1FS2ExZQJb4PMjkHyfRv1hCz9hwOfbiPtJP32v2x+zRjgRYOmKsfdLy1xJl5zskl++wXkkRv5cLBtOaC5awPN+c3bUnkcJ4T8UI/WI3zU4vpy8vEX++DdfOBPq1cQZ62rD/LEgt9EdE/LVE2fkOyeU7rFcypHK5GZqeK+Konc3ZbvONGEZ7KnLBy+HLMbSjEywl4yzps8zOL6Pi0wx2QOKql9Eb5s9FiPgFoaJEWfiiEdfBHkZO9WFf37/X3Jz4VXaeZHJ+YZMt2o1BnvkFoaLY6QvO0lfkqGbbC4RgJUEKTA0zF/ELQpXIfB1Bvx0m+vW6Nj4WNs+gPET8glBpHsYInXqd/gt6dryh1YnL1pg9dr8WhvqyiPhriZrId/g0YEXLhYAn7xdxVCJGGKDXVvX58o1k0N/r5PCFBM5fBpg548Gxc93hz0dpcJ421KJiyIBfLbGa75BcvsPHMCLf4dPA2pRnZCVesEQmmcy2ui2asXP8KZ3Q7xKAj5GxPOHXGCL+miKX75BsvsPHMCTf4dOBvd2NBug39AJz5hnCc7lFQI42Y9f2l5iuzSQL36zMQMRfU0i+w3KxOA9xoh24eZrxm3mOWgkw/tsE0If3oMHj6TusZJcdXWd6bqNdqb9P0veLcWPt2QR55q8xJN9hmVic+P57hGnnac657UTe6MP9UhN8s8Dk1SBRNDzBQXqM7nZb3fSddzL+zjyjLjuh7sP0vGohEQox+XkMTdOABKTSpA027TG2F4MkrIcKRvVlSarwmEfZ10XUAcrW5VOBaLr016tI+GyNRPXlSN72K8/L2gY/0epWvuCSMs9TSbVwMe/30+zKMxZWyVhA9YCCPnX9m01OcW+1XPWi+hqUUsqk+84zQ0NDA8PDw5w5c6bCZ85sO99hvZFJpXIr5mop49Ha72exWg0dexgeHmZoaIjN5C3d/pqmlipybWO0uMqjtn8/GfAThDpFxC8IdYqIXxDqFBG/INQpIn5BqFNE/IJQp4j4BaFOEfELQp0i4heEOkXELwh1iohfEOoUEb8g1CkifkGoU0T8glCniPgFoU4R8QtCnSLJPGqZTIrUo81ezE8MsZYtB7BYqZ08FesyHgGWHVYsT1vNfojhapSWvxZ5GCN06hC7G5toalp9NdK8x8v4HeN3d03dGce7p5nGpnX2NO7m0KkQsYeGm7OB2I0BDr3UuM5PTTS+2Ib3DxHM3we3BJkE81OjePc0c/iaCbsubyM3oJAHFU3guawCR3MJKVt7lO9iQE2HJtTgGy6lgQKnGvnCuNSU6fkR5QQFmnK9MagmQtMqcNGnelqziSm1o9eVWak8l4OenE9squfkJRWYua4m3u9TrlziTOdvFkxM4lmMtIrPB9TIEXvO9uokRC0ngaeIvwJUUvxpfTBbKTpGVPj+xmOPKnvXhFquyNVKsawmurLC9wTzrng/rEY6sscGdRMklp5Vg1ruZjifd/1YQHk0FLjVxF3jTSvOghpZl9HX1tGnerrME790+2uKDOGboySAvlP9OPOy9dqODDDQDtwMon9lgDlf6QRvAu0DDBzJ2/Fuh5P+U31AgtGbYcP3ms/cnsltYDJAf0fe4EOLh4F3HMAMwbna2RgTMrDDTf9YgPC9NMvzEww4zbNGxF9TRJnPbcflchTalsOO4yCATiRa/SfaRERHB+juxFHguHWPExfApxGiVbdmI9E7ue249jsKbmBib3cBoEeiNfTs72Tw7jSXTnpwvmD+aKmIv5ZIxYknAGxoBXeZWtugMp5KVt2c+NdZSbteLLLl1c5m7ACLSYNb/hTxe7kNS7XmgiUszzdnb1iJFNX31NOJiL+WKLHJI0Czlu1+h1aqPzqceRABwLqjsXABa1NuX7pokV2Fq0WG1LfZd03PFXHUzubs1tw3Ypgwjv5UIOIXhDpFxC8IdYqIv0L8+9//NtsEQXiEKmMLThG/INQpIv4KsGvXLlZWVp78RDu17CAVSdJFhs/jK2EAelpthQtUEE3LTpelHhTZST4RZwmAvdheqLo567CitWTfJe8XcVQiRhig10b1PVV7LC4u8qMf/WjTMiL+CtDS0lIZ8VuaaG4HiBQZPc+QTOamuHYWmt2uLE2aHQD9bqzwVN6DZHYk/aBGkcnAKrE25RlZiRcskUnmbGvRCq4DeNZJpVJYrZv/5yL+CrBv3z4+++yzCpzJjqNLA3RCtwusTMuE0XOLgPbaq79IxGp34Aa4qhMuoP7Y7RA6oL3aZnjram93owH6DZ3HPZUhPJdbBORoq8Gtu6vPZ599xr59+zYtI+KvAO3t7UC2q/VkWOj86QkcwMx748zkLU2LTY3nlrR6cRvRzW49hLcXSIxy7nLeGr6UzuTFGcDBQLfxa1QtzkOcaAdunmb8Zp6jVgKM/zYB9OE9aGyfpBZYrYer9bIoFY0mqFOSyaQC1IULFypwtrQKn3Vmgz80l+p736/8Y37lW40C0zwqEKvAZcrlUZAMytbrU/4xv/K/36/cuag+59mwaZFz+RGH/jG/8p/0KLtWJBipBgmfrXxgzwcffFAyqEcpieqrGMeOHVMtLS0VOltShcdWK/G6KLAunwpEjZdaOhpQvi7bBlvQ7MozFlZJw63ZSPK2X3le1jba1upWvuBSDYbzPk41xL9r1y517NixkuUalCpjQlAoyeLiIg6Hg7m5uZLPWuWzLkPN961Yd2xeuuo8SJHKJe+wWK019Sy9lmXI/IxHZvLxxx/z2muvEYlESnb7RfwVZN++fTQ0NDA3N2e2KUKd0t7eTktLCx9//HHJsjLgV0GuXLnCrVu3uHLlitmmCHXIlStX+Nvf/sbvf//7sspLy19h3n77bf7yl78QiURKzrMKQqVIpVLYbDZ+/etfMzQ0VNZ3RPyCUKdIt18Q6hQRvyDUKSJ+QahTRPyCUKeI+AWhThHxC0KdIuIXhDrl/wG54UI08irxlQAAAABJRU5ErkJggg==;" parent="1" vertex="1">
          <mxGeometry x="1489.5" y="208" width="255" height="146" as="geometry" />
        </mxCell>
        <mxCell id="cknUZDh6W9m0Aj6pyx8Y-1" value="" style="shape=image;verticalLabelPosition=bottom;labelBackgroundColor=default;verticalAlign=top;aspect=fixed;imageAspect=0;image=data:image/png,iVBORw0KGgoAAAANSUhEUgAAATYAAACQCAYAAACCjkfuAAAdsUlEQVR4nO2df2gbV9rvv770gg0JK0EujCGXRCEvVCZhrbALlnmXJhO8YIXsUoUsWCKbzav2Qqr0bu8rJ9A6P2xX3oKrtEveuC/0ddKwQTJ0sdLdix1IkZySi1RIsbx0sRZaLEMLEiQgQQwSJOxz/9BIluWRNJJH0mjyfEBgS+fMPHPOzHfOj+c8p4uICAzDMDriv7XbAIZhGLVhYWMYRnewsDEMoztY2BiG0R0sbAzD6A4WNpV55513sH//fmQymXabwjC6IJPJwGAwYHx8XHGeLnb3UI/19XWYTCZ89tln+N3vftducxhGN9y5cwfnzp1DIpHA/v37a6ZnYVORo0ePAgAePnxYX8aNDDIvCv90w2Dorj/fKwYYdtV3WjXJZTLIFf7pNkDZJeSQyRRzodtggMIrb4xcBpunq6OcNUGLy0oBra7zo0ePwmg04t69e7UTE6MKsViMANDS0pLiPOlv/eQZNhGArZ+DNvIEVilbZz7TsIf88Uq5mkGaIjfcZDtYZj8EMo94af7btHy250kKTTvILJTlE8zkmI5QhVyN83yN5i/ayFRWXsIhB918rPrZ1KUZZRX1EgDyPGjkXmlfnd+7d48AUCwWq5mWhU0lzp49S/v27VOYOkurnzpIKAqSm8amfeSb9pHnnLX4AFrfDW2r8GzUS9bijeQh3+15mr89Ru6i0FnJ+7gF4pZdo9kzwubNeTFvv2+61BYTuT5fK8u4Rv5CvoM2cl+5Sf6gn25e3LzphTPzlFTN0NLz2clzw08LwVkae1OUyr9F5dUQTSorSdi80TrzaaDO9+3bR2fPnq2ZjoVNBdLpNAGgjz/+WFH67ANP/qESRPI+knlXJfzkEPLi5fi8pLqzIRoTQICFPIvl+dIUumLJ3zyn/SoKgzzLH1nz5xrwUkTmEtIPxiQBtpP/h83v127bJBtv0uqzskyJWbJLol33Q1eBbHgsX9YDXoqUnW8tIL1chmep/FHUAuqVVZbST0rEW07YsrXFXQt1fu3aNVLS0WRhU4F6mshEy+TrlxGtMtJBV/5m6PfRsvRd9oGnunD94JduEjctNLWHVbiGat2ZLIXezb+lLR8VrmCNZoeq38SRyfI8OyFLoYt5O11BuQIpXIdIs9+pcDpVUbGssiHyAGQacJE3EKHkg7G8sIXTtLo4S54RMwmClyJVD6KNOi8M+dy7d69qOnb3UIGHDx/iJz/5Cfr7+2sn/noRvhUA/aMYPS1UTGYYdsADACuLWP4+/13maSL/x2ETZHPuNeEIACCJzEYdF1A3OeRW8n8Zd1ca+u1Gn9UJcUiEMZlE3vklhdSXADAI0175XKaDgwCA2EZOPkFdxBG9CwB2iBaDzO9mWIYAIIxYvEXuOakoAu+/geNiH3q7DmDwl6dw4cMgtp9exbLKGWG+6ILw9BYuOwbR+8spAMBl0Yg+2xu4PpeDaTiL9HrVg2iizgvP2MrKSvWENSWSqclrr71Gr732mqK0yx9J3cUr1d+PRGlaDYcoFA7R6hOFhhRabCWtvOaQJP9paRxwWt0zFd7e7r+q0ORML5AbIMBDoQqNjEJ92P/U/M7o2ueu4vipcEgkcWhzPBWCg/yJ+o7XSFllv5sn96vSOV9102xsjbLPleTUTp0red5Y2FRA6YAmEVHkCpr2IK19mh/LsKrSjatO+q9uafBdIPH/+GlZqfhW41mIPAIIgpsW1DhesWteuZuVDNjzD/lkrRfNDon58uNPgoNmS2cOnydp4V1p7OrcvPJZzgbLKj+uKJB4zEqAUNfMqFbq/Ne//jX19/dXTcPCpgIA6Nq1awpSbr717AGVh/cT0kMseChUPkDbFLK0ettV4kIhkPmkm3yBOlqYZceLSJMftk9VEn0NCdvqbQeJQyLZP12tYmflluVWGiwrSVyF8wuUpmXyDdTbUtRGnSuZQGBhU4G2C9uzCHkHUPcbuCrZNKXT2z/bjp4M0c3z5T5iNXyaZGjKDGUrhU1peckSIa/MbGIlGiqr58vkO5YXsvnCOQpCd65Ol5E21zkLW4sAQBMTEwpSNkHYnm/6CFknIwofpNoUH/gtnyoPXjZNq2E/+bbc8HI+TdtJP/IWu2n1jjNVpYXCpri8sklaXvTTzemCD5iPfNNusikUth2VVXKBZv9aWh9ZWv7ERwuN3optqvPx8fGawvZKzWkIRkUEmF6V/nyRVeF4CQT+bRDOuylYJyNYvGJVbZlNt8kG3/Rg2bcGmCot2+o2wHzMAfMxBzwfpRD+2AXne4u49RsnTI/DGPuZvGW5r6dg+8VlRAUH/FE/HLWXAWoSJeWVuDeKN966jnAKAEywDpnQAwDIIqHgHDsuK8EG18ktVsNy3gNLnYfZzK7hOq9PKxk5oLjFRrT2qZh/s10M1Whd1ZoVzVJk0ip5bfs16GCapdBFofq1Fh2RreSNNsH7X/Lfqjor+gehOWOe5aYUnLIH3OSPlXfXFHRFm11WqtCaOlfSYmM/thZjOizmfdDuRhGrljATwYx4HMfFKUS2+TjlEP3gBOxXoxDO+BG57YCpWQbLkJo7ha6uLnRdCqOy51E3+ixSC2Y9hW2XsB7EG0NOBFJWeB8tYmygCUu6u43o7QeAGBI/yiXIIZ1OAQBMe+T83NQig/C960gB8Ez64Oiv81ytKKsadEydS7CwtZoBG0YHAKQuw3e3cgcksxTEDAAMOyAe3PpbYs4F+3thpAa8CH7igKnFAwqC6YgkzouIVHEEzm5It/aesggOG1FMjZzCre8FOAJ+jP1rs0TFDMuwACCM4COZss5FEJYceI+YmykWOWSe5v+SdW7dSCNZKWvLyqo6nVPnEg21BZktoI6uKFHpQnar7FrR9LezxbWi5U6LxUFXmbWPrWOtOAkinJmlVZmJsGy8wjUUJzsEcgSa34HORr1kkdxgypeZrd221+8/1hBpWjifLy/LlbLABunVzYXl5V3RFpdVdbRT50q6ohyPTQW6urowMTGBq1evKs6TmHNi0BFACoBpwAW73YxeJBG/v4iFpThSECD+IYiFd0smBFJBOHtPIQBAOCSir7faGezwPXA3PjBci6dhXP6NE1NLKQAmWE/bIP7cBOOWawCsby/Af8NW7CrHPujFkfekPMXBc3ksb/vhO1l52Zkycoi+L2LwahQQRLjetMG8G0jGbsE/F0eqVZMWK9cxaBlFFIBwyIZTr4vo/nEewc+iSAgChFQKKYiY/S4El9RCb31Z1UAjdT4xMYHx8XFUla4dyydTd4utQOW4am66GZYZzC66Lyj51FrUrALPkxQJeMlxSNh+DQMu8i2ubRtAjkwqtV/NAf00RWRigbU6fl368c2yshLIPOKjyJPN1lDpYv32lFUNNFDn3GJrEY202LZQGtlVcSRSjVEazVez11ASvbWNEYeLkWc1W04KaVOdK2mxsR+bFuj0GxwAdhnQnmHtetBGOHAthPVWBQ3XOc+KMgyjO1jYGIbRHSxsDMPoDhY2hmF0BwsbwzC6g4WNYRjdwcLGMIzuYGFjGEZ3sLAxDKM7WNgYhtEdLGwMw+gOFjaGYXQHCxvDMLqDhY1hGN3BwsYwjO5gYWMYRndwoEkNUIyoCtQRdLIkGizaE7xwi931RKQtjbzayki2pZGKNRJ0sjLtr185OqXOucXWNjKI/scFnPiXLvQYjTAWPj296HNMIfj3bbsy5nmRQvhDJ/p6ezbzGI3o6e2D88Po9r0cm2B3fG50u927u3DANorAPyrvOpn5ewCjtgPo2l1fvh3zIoHgpRM40FNyXmMPeg87MfNN80usLppRv19PoaurC6NfNlrGHVjnje7pwGyCejdzya5tbrkmmMlx0Ue+aR/5psfIXdzcxUSuz8u3KitsYwbCQRu5r9wkf9BPNy9ublQinJmnpm3r8ax0qzgT2c6PSXZ7yDVQsNtKY+Hte7NtbjkokHnEQ77b8zR/u/R6reR93IyNVUrLzE6eG35aCM7S2Jtifmf2pp23EZpUv1EvASBvtAGTNFjnSjZzYWFTgXqFbfkja75iB7wUkdmfMf1gTLohtu4zuXbbls93+iatlu8pmpiVdrASGruBa5Kl0MX8DS4ck7d77U+OvFgIDpov3R8zG6IxAQRYyLNYnjFNoSsW6br8qotyNjyWt0lmH9a1gGTv8Cy1e9dOIjXrN0vpJyWCISdsWSWCos06Z2FrEfUJ2zL5+vNvX8+DSjdXlkLv5m8oy0fL0ndrNDtU/caOTJbnUZGYT9p4uOwG3kKa5s9hmw3ZB57qN3FxW0H3tk2Nd0aWQhe3b2u3SaEuRJr9Ts3zNoKK9ZsNkUfaDs8biFDywVhe2MJpWl2cJc+ImQRBwfaMGq1zJcLGY2wtJ4fcSv4v4+5Kw8Hd6LM6IQ6JMCaT0rhKCqkvAWAQpr3yuUwHBwEAsQ31xy6i/9eHGADLv4/CXuH8gAG2EU/ehvvLSEjfZp5Kfx02QXYr3L0mHAEAJJHZUM9mII7oXQCwQ7TI7adkhmUIAMKIxZs01paKIvD+Gzgu9qG36wAGf3kKFz4MYvvpVKzfnBHmiy4IT2/hsmMQvb+cAgBcFo3os72B63M5mIazSK9XP0xn1rlEfVrJyIG6WmzJ4ua41ml1W1aFN7r7r6o2e6i0lTn2qEbSJ6sUCocoFF4lxVYU3t79PlK1RNIL5AYI8FCoQuN4+aN8l8j+J/U7o2ufu8gkbQQsHBJJHLIW/4fgIH+ivuM1Ur/Z7+bJ/ap0zlfdNBtbo+xzJTm1W+fcYtMkAmxn3BAARC/ZcPzfA4g9VeGwG2HMf5ICBDdsVrV3e8whvQIAdvRVfHNL7DFDPCZCPGZWvOdk4r4fQQDW34qw7MjOMjYySAIAjOip0DjuFUwAgOB6Ss0zAyvX4fzNLSQEB2a/TSP5bQihBxGsPU9i4V0rkArAORlUPsvZYP0mH89j/h8CxGNW4B/ziD/pRbciJ68OrXMJFrY2YDjpQ/i2CyakEP7YiSP/oxd9v7qA63NhxBsSuRyi06O4ngJskx7Y9qhs8I8JxAt/q+35uB7A6P9aBAQPvG824xZvD/HYMnqGRNgnL8N1qORxf0WA7a0LsAPAZxEsKxo1aLB+V67D6QgA529hPjwD30AK13/rQqBGFxRA59d5na1ARgbU6+5RIBmim+dtm92T4tS4l+a/Vd7daPrsXnGgd+ss7Y55FiHvQP6aK0+k7ICi3ZUHypMBe77cJ2sOpatIhLx1lGdD9ft8mXzHygb+Yz6yAiScU+AyouE6V9IV5ZUH7UQQ4f5EhPujDOLRRSz+2Y+Z/1xEfO4yTs3dguvzEGZPm6oeIvP/puB0BJASHPB/4kL11BriRQKBt+y4/DVgnQzCO6QFv/omkEshthRG5O/JTY99JBBRmL3h+n3FAk9gAYbH5s2B/343Zj4Bkq/b5Qf0m00r67whyWS2gEZbbHJkkxT6g02R82jRAbKBgej6iNBY4e2tynk2HVGtkxHlA8710uYW21rQQ6JQaImbyDokkjhUOolQvTXUuvqVQ7t1zn5sLUJVYSOiUsdIXAyRrLQl/OQQJPGLNttzvuBjVc33TqLmDFmWIpNWyYve31zHWMmfq+qs6B/y5WwPqOsanH3gkRyD3eSPlZeEgq5oS+tXDu3WOc+KapDU3Cl0dXWh61IYlceNu9FnyfssYT21feZsPYg3hpwIpKzwPlrE2ECzu3Em9P0i33nxfx2rmjITncFx8TiOfxBBetuvOUQ/OAH71SiEM35Ebjua23XuNqK3HwBiSPwolyCHdDo/G2rao+ZMcgbhe9eRAuCZ9MHRX+exW16/cnRonUuwsLUYwXQkP75xdxGRKo6J2Q1JzvaURXXYiGJq5BRufS/AEfBj7F/Vdu2Qx3pyFFYAqau+KrNqGYTvzQAAbCPiths4MeeC/b0wUgNeBD9xwNT0EV4zLMMCgDCCjxLbf85FEJYceI+Y1RSPHDLS7LasE/ZGWnJDkaFN9StHZ9a5xA5bhQzV2xVdKzroCmdmaVWm7Z6Nz0rdEGGrM+bzwjiFQI5Aq1c3bnYn5Ne4pmn108K6QTctPCn79ZE0XiSzZrOZZKNeaVmQZ9vSnbXb0vjauXmVx/nStHBeWmZ0JbT12OnSReVlXdG21q8c2qxzJV3RLiKiFmmobunq6sLExASuXr2qLMPTMC7/xomppRQAE6ynbRB/boIRScTvL2JhKY4UAOvbC/DfsBXfgrEPenHkPSnPkAk9VU5hedsP30m1574SCPx2EM67kg3n7Dhl7gWexLF4fwHhv6cAQYT33sLW7lMqCGfvKQQACIdE9PVWO4cdvgduFZ02c4i+L2LwahQQRLjetMG8G0jGbsE/F8/PNkb9cOxX7YR5Vq5j0DKKKADhkA2nXhfR/eM8gp9FkRAECKkUUhAx+10IroP5LO2vXzm0V+cTExMYHx9HVelST0cbQNHSjjzZdJrS0kfZkpDWgUYmD54nKRLwkuNQ4e29+TENuMi3uLZt0iAyiW1pK33UHgzfJE2rAQ/ZDpaf00S28zcpJHfa4uykko+CxdkN2ByZ3gz9UyznYQ/5480bmE8/vllWvwKZR3wUebLZai9dnK+N+pW9Ek3VuWqzosUp8Xo+VcKRpOMLkmNqrQuqUqAX/dtDu7SJhoStlGebop3WSmgwBWx52bTbGEVkN8u5ld3hDqzbSmihztVz0N1lgjgkln2ZReLLKBIATAMiTLvLft5bNuj5NI7FuRnM3JjB4veFLwernDSH6Ps2qQthhuOiC6LVBMTCCM7NYPFDJxYfJbC8NAZLp/t27jIoXmOnJbQSrlo57QkH3nnlVJmOuZbGdbPgi1M7Mmfyc8dma0swk23Elh/QrdJiKwYI7PdsG5SkdIjG+tvRJJcHqvuxMQxTCe34sb0AzCMezC6uIv3DKhamnTV8WXKI3J9CCoD90uj2Rb8GERcu2QEAwUfLLYjzzzBMJ9ESrxJhxI/VkXpyZJCS/GaOmORnfgTTEQBB4GmmiqMrwzAvIxpdBC/A8TnBUSVFKrEMALBYzQoW9OaQ+iaC1Wc1ku3uw+DPhM4YQ2AYpiIaFbZaJLBwNwjACucxJd4vGYSnj8P55xrJTvuR/NzRnsgHDMOoRkcKW+LuKN64DwgXvXD3K8lhgHgphND5Gsl293Xk7CTDMFvpOGHLfT0F52+DgOCB/6qosNvYDeFnIrfEGOYlobMWwa8H4Hr9MqKwwnvPC3FXuw1iGEaLdE6LbT0Ap7XRUC4ZRD+7hUit/QT2DMJ1zsrdUYbpcDpD2DaimBpxIpBqNJRLDon7oxhVMHngPGdt1EqGYTSC9oVtI4qpX9lx+WsBjj9F4B9pJEwdTx4wzMuExoVN2vxhKQXrZAS3zjQae5MnDxjmZULDkwcZRN93wnk3L2rhK1Z2nGUYRhGabbGl/uzOR/aAgMzSZZx4VCXxSR9Cb+tns12GYXaGZoUNLworQFOIL6U2d6WW4xe8WpRhmE12IGxWjBFhrJGsex2Yp2orQQFhZB5U18J5hmGYPNptsTFALoNMsTHaniCJDdEJdr/AS3X35zIlUXC6DdBilaiJhicPXmJeJBC8dAIHeowwGgufHvQedmLmGw1Hn+sAuzP/WMTMWydw4L9PIdpuY1pA5psZOA/3osdYUic9B3DiUhCJF+22rom0KOilroGqEXQLW7CBcNBOnht+WgjO0tibYj6iMKzkfazF4PkatvvJKi3ccJftndGMTWO0RTYqbX8HgcQ3x2g2uED+Gx6yHyxs/zhfcV8SLaPaZi5MddQUtmJIdJm9GNcC0h6Ow7OkhV0nS9Gq3Y2EpdcHazQ7DPk9Sp9FyDuQ/20srMWXZHW0ExqcUchmSHTXJTesZYv8TSOjGO0HcD+A8Pdy+duFhu2uOyy9Tvg+jMB9AP2jGC1frbPLCvclF4AUpu5HdBmBmoVNU8QRvQsAdogWucVdZliGACCMWFwbY1Z5tGu3MOLHasAH17AZhpdosiAVCyMMACcHZTciNhy2QgSAL2PVXak6FBY2LZFJIpkCABME2fVf3TD25m/TZCbdQsNq0Kl265jkj3m5Ev9nhYWEe3phBoCVNLfYmCazkUESAGBET4Xp+F4h360IrqdaZVVtOtVuHZPbiAEADLt65BMYjOgFAMSR+LFVVrUOFjaGYXQHCxvDMLqDhY1hGN3BwsYwjO5gYdMSewTJxyqNbIWpquR6BABgP6ghb6xOtVvHCIIIAMhsZOUTpJJYBQAcgWlvq6xqHSxsWqLbiN5+AIhVmKnKIZ3Ozyqa9mgoiHmn2q1jjIIZABD+LiHvzrGRRgoAhgRdRpZmYdMUZliGBQBhBB8ltv+ciyAsOcIeMWspPEOn2q1fDGYLbABwN4yIjLIlHgURBiD8ok+XKzFY2DRFNwZ/dQEWAIvvzWCxzEk/MTeDqRSAc07YNNV96FS7dczBE3CeBpCawvXPytYWZMK4dWMRgAWjJ/W5K9tLtMikM+ge8GBmcgGDV6/jhDkG15s2mHcDydgt+OfigOCA/6pdc7tpdard+kWAY9qPhUdOBN7qw4ElD9w/7wWeJRCem8Hi94B1cgbu/nbb2SRatCBf10DVsEVERGmKTDvILJSG2QGZhj3kj2s5GkMH2P2Dn+wvRXSPPNm4nzzDpi31AcFMjukIpdttXIMoie7RRUTUJk3VDV1dXZiYmMDVq1dVPnIOmUIo2lcMMOyqnlo7dKrdOmYjg4wUWLLbYOjoHd8mJiYwPj6OatLFXVFNo9Gw2jXpVLt1zC7DSzUMwJMHDMPoDhY2hmF0BwsbwzC6g4WNYRjdwcLGMIzuYGFjGEZ3sLAxDKM7WNgYhtEdLGwMw+gOFjaGYXQHCxvDMLqDhY1hGN3BwsYwjO5gYWMYRnewsDEMoztY2BiG0R0caFLL5DLIFHcY6qDgjVq1W6t2tZoX0P2Tzy02LfIigeClEzjQY4TRWPj0oPewEzPfZGrnbxdatVurdrWSXArRuSk4D/fi1J9T7bam6ehctzuRBAL/Ngjn3RRw0A7P/z4FcW8WkfsB3PqvAC78PIHM4zDGfqa11oZW7daqXa0gh9TXQdy64cXNuTgKcmZvq00tohW7yugdqLhLVTY8RgJAGPBS5NnW39YCjvxvw7O0psrZ1EOrdmvVruazTN6S3cJMAy6yD+f/tgeS7TZuRyjZpYq7opoih8j9KaQAuC65YS3b3ck0MorRfgD3Awh/3w77KqFVu7VqVyvIAbtscE/7Efkhi7XoLEb1uTeyLNwV1RRxRO8CgB2iRW5PITMsQwBWwojFM8BBrew7pFW7tWpXK7Bi7LuFdhvRNrjFpiUySSRTAGCCIMgl6Iax1wIASGbSLTSsBlq1W6t2MU2HhU1LbGSQBAAY0VNhLLtXMAEAgusamtnSqt1atYtpOixsDMPoDhY2hmF0BwubSvzzn/9stwkM81JARDXTsLAxDKM7WNhUYN++fVhfX9/5gfYIyA9lp5HNySdJrkcAAPaDpp2fTy20ardW7WJ2xMrKCn76059WTcPCpgL79+9XR9i6jejtB4AYEj/KJcghnc7P3pn2aMjnSqt2a9UuZkdkMhkYDNXri4VNBY4ePYqvvvpKhSOZYRkWAIQRfJTY/nMugrDkcHrErKW1jVq1W6t2MTvhq6++wtGjR6umYWFTgf7+fgD5JvLO6Mbgry7AAmDxvRkslgWeSMzNYCoF4JwTtr07PJWqaNVurdrFNErhGSs8cxVpzbJVfZNOpwkAffzxxyocLUuRSWt+8bIgkuuKj3zTPvKMmPMLtgUH+RMqnEZ1tGq3Vu1qPZHJzl8Ef+3atZoL4ImIWNhU4uzZs7R//36VjpamyLSDzCXRGQCQadhD/nhWpXM0A63arVW7WosehG3fvn109uzZmum6iBQ4hTA1WVlZgcViwdLSUs3+v3JyyBRCvr5igGFX9dTaQat2a9UuRglffPEFXn/9dcRisZpdURY2FTl69Ci6urqwtLTUblMYRnf09/dj//79+OKLL2qm5ckDFblz5w4ePnyIO3futNsUhtEVd+7cwd/+9jf88Y9/VJSeW2wq88477+Avf/kLYrFYTV8bhmFqk8lkYDKZ8Pvf/x7j4+OK8rCwMQyjO7gryjCM7mBhYxhGd7CwMQyjO1jYGIbRHSxsDMPojv8Pabhs2e7Bc4AAAAAASUVORK5CYII=;" parent="1" vertex="1">
          <mxGeometry x="1794" y="210" width="310" height="144" as="geometry" />
        </mxCell>
        <mxCell id="cknUZDh6W9m0Aj6pyx8Y-2" value="" style="shape=image;verticalLabelPosition=bottom;labelBackgroundColor=default;verticalAlign=top;aspect=fixed;imageAspect=0;image=data:image/png,iVBORw0KGgoAAAANSUhEUgAAATMAAACVCAYAAAA0ah0ZAAAffUlEQVR4nO2df4gTaZ7/333MQTc4bDd4UA3zRSN9cBGH7cgedOS7jEZ6oSPuMhn8o9N4bm/GBbfd27lNFObi740etHFm8ez7wlx0REkEj8T5QbegJDoIieDQcZmje2CGxMWBBBQqoJCAsp/vH1WVpNOVpJKuTio1nxcEupPnqfpUPU+96/nxeT5PHxERGIZhepy/67YBDMMwesBixjCMKWAxYxjGFLCYMQxjCljMGIYxBSxmDMOYAhYzhmFMAYvZOvDBBx9g8+bNKBQK3TaFYXqOQqGAwcFBnDp1qqV8few0qy9PnjyBxWLBp59+il//+tfdNodhepKrV69ienoa2WwWmzdv1pSHxUxndu7cCQC4f/9+axlfFlB4rfzTj8HBfk3ZSoUCSso/bwxicENrp9WTFbb0D0LTJbwuofCynAv9g4PQduVtUiqgUDFS833uJEYq0zIr7lsL5dRmvQakZ2loaAi3bt3SloEY3Uin0wSA7t27pzmP+E2YvBMWArDyM+Ikb2SJii3lE8g6GaTkM32uR+MVUPLiDDlHoGJLgKLfiOrZXuUoPusmq9DadbfNqwxFjzjJUnOfhW1uuvSojo0dRvcyfRomF0COTzLtG5WLU3DSSkJt/RSs5J5NUt07VyefZcJL4WVtpXvr1i0CQOl0WlN6FjMdOXDgAG3atElj6iItfeIuF7ZlYob8s0EKzgbJO20vP3T2D+OrKkwxFSC7XNEdB/10KRKl8EU/zSgPwsgMzXdC0IoZCu0XKpX7iGR/cLbKFljIc7P2YcpQWMk34iLvbIiisRAFjyjiJpDj4qKOhtac72KY5mMh8h90yPffToFHustnS6xLmcpi5ork2rJJvOOXbZJE3yvXT/8hZ/klJOwPUab21mXD5JZ/t+zzUvBKlKJXguRVxE1w0CVt+kSbNm2iAwcOaErLYqYToigSAPr44481pS/e8ZYLNvBA5f1WrhACuW9WVcZinPwCCLCRP7FK5ih53EYAyDarpxios/iRXXrQxgKUVLmEysPgovDTyveZK04p374QZV7VZMpKDyDgoahOglxM+KV7PRag5IuVv2Ui8gtlIkRraL+sDR3LtPisKr+amBU1ivZ3IXIqL6OIyp0RkxQYk1+45xarWtIZCk1I37uurM6XueaSyn46Wr9VV8XJkydJaweSxUwnWmsSL1JwVEWoahBjHqngR4NUrsaPAtLDN17n4UsHydbod91QrgHkvVPvASlS/EOpRWT7SLmCHEX3N8on0vyhZsdthSLFj0jH88TUHh/lOhwU+k6H07WDbmWaodA4SNjmpJmL87SUDklidi1DuVSYgoecZKl5sagjUnRaTajq2IUZmldubS5KboAAL8VVi3eeZhr9XnsKeejm1q1bTdOya4ZO3L9/Hz/5yU8wOjraPPHDBQQfAxj1wbdPqJtscMINLwA8XsDi99J3JcGJcCKO+Lk9GFbLtHEYFgC4m0e+1YtoiRJKj6W/ht6sN6jbj632KTjGHRjK5VCQv7P9No54Ig6PTS3fIIbkC8s+18O1ZRmp6wDggsM2qPK7FbZxAEggvayjK00hi4X/PIz3frEDW/qGsdWxG+8fvYyESqHoVqavgeHxGWzHIub+dQ+22t5HDEDsX7Zg2D4F3/9bRP/eYRTzpUZHAX5YQPhTAPDAd9BWf6B/1IWZcQCYQ+KRfMx+Gw4n4ognPNiuWrxD8jVmkX/e2AwA5efp8ePHzRM310ZGC++88w698847mtIufiR1G3A82SSlSEuJOMUTcVrS2uVKyW/5fWFqb6REKzkK75Pf3rp2aZXjChRI6XA4DS0BpTxc1/RpyxZTAXIoExsjdnKMO6omOuwUSLXY4myjTIvPFim4Vzmni4J3lkjUeFrxixkp37vhJi3BIuUeSfVz8anGg8tdXwgBalb7FbQ+WyxmOtHKQGXyOHR9eMqUxzEEnbpoTU73xYw8gC6Q49/CtKjDGFfmms5jWMrDg/oPTy4ij+Oc0fp4NeDZPM0Ikmj5F6qlR6xM+FQPGzSjzTJVJhTsu6RJDmcLM5rlca2mL9sWeVWZiGnFnl/96lc0OjraNN0bzdtujBb++te/anTuyyP7rfznGwNrO2khhcv/nUQBgJhNIHZrAct5CzxX5hEYX3//qcG9QSSulLDnN5eR+HgK2z/2wrr3PXgmXXCOO2Dd2PwY2S8vIPYtAOSwHIvh8sMshF1+xK95pK5Vj1FKJ7H8tgOOaS98E9VDCIOwHjyMwyciOPZ4AYvfe2EbUTmAHmX6fAG+d48hNRbEYsKD3O+s2PPbKZx9OwH/WPNj5J/EpD/+Xtvp6pPFwvkYlgHg2TKity4j9b0Ax/E4wge1l+7o6Cg+//zz5gnXIrRMBQB08uRJDSkr3bN2p8zLlFsdlY91X5DievUviyKJ4urPqvZBLk6XDtX6cDXxM5NJnqn1T3OQ9+aSppkuTXS6ZdaQStnX7UKvuUxFmj8orHQ3UVqLY0FarJ09VqFcJmu+H0kK1Pqn7fI2rRO1aJ3RZDHTCQB0+vRpDSl1FDMqVkQmu0jRix7JFUJwtD4uo2ap8pCv+DSYDSuKtJRQZs2U9Gp+ZlW8UEQyR0uJMPn3St0Qy3S0N7uZCq9EWkpFKTSr+N5J/nfu0SZipkeZiksUjiRXvHRysSCFNIqIfmJGVFSuJbdE8YifnIKGOlHDqVOnWMw6iXYxW8cxM6ryXxu7REtrPJaYClU9iMonpOpTttqQHMXPOdtwSlX8lASaWdChfdYFMRMfXSJXeUWEQNZdDnKMO1ZMBLQyuaFnmWph3cbMiCr+a0KVO0cTWMw6TCtilvnEIVWWI/Emy3bamM2kJPmbtaA6RpHiRwSN11qh/DDpIS7FOHmbzWaeE3RqKVPVw+qkQCJXc80aupmqdLZMi3e80v1v6tfWxmwmZSj8bmv3QKuYsZ9ZF7C87YAAANdTSDdKWEhizrEbux1nkZRdoAoPL+PC+Qu48GW2bjZpWqGAYhN3orWQv/Ee+vr60Hc0gfqn6cdW2w7pzyd52c8si4XzF3Dh/GWk6rh1DSjTUi+KDY6tkf4hDI8CQBrZH9QSlCCKkveWZaOaH1prpL+cwwIAx5lL8O8SNC3GNkqZKvRbt8MFAHcXkFK9ZwrLCB/cjd2O3Qgvy199vyBdy6cpqBfvACCXr/hC34thMesGY074xgDkjyF4vX4FLtyLYQ4AJtxwyDNfpacJ+I764LuVVq8spSJEAIAVwxpmE9tFsGyXBXkByZf10xVfylZuVKIsFJD+yAff0TkknzTOYxse0iGChhW2CQFAArEHKve6lERCdqrdbl372UovpdfT4Aa1mWoRokqhGaVMy7zlhOeQACCG4Cep+i+UxwmEHwMQ/HD+XL53hTSCR33wXUxCvWYXUSwAgA3D/6DzjLvGtiHTBLTQzSSqXlhsV12bKX4TKq/NnPmi6vdnUfLUzVek5BlpvaRwaF6/GUFVMuUuk7A/REsqJysuq1/D4qxNzhdWXZvplv20ghoXIzejmApIy24E76pxmsyV1tYKNqPsEF277vRVjuY/tJcnUlZ0sQxTplVUrw1WG9vNzZNfWZv5UbXXXNVSPZV85bWwY9p97XjMrMO0KmZEVQULkGXMI0cl8JJnl7XijHouuWqsqZJPIOukd3WkihEPRbP6XVtdnsXJv0soz1ra9ymRP6qvAWT//fzKsZcXlUXKGHHSzHF5cqE6aobKdbdPRRAgOMgjn68SxcFNYb3uV9lpVvL+9xypjjIhkCCorzs1TJlWUXnhyus9j8s27atEdVGbda7OtyIaTFXUjFZm21nMOkw7YkZUP56ZZWKGLiUaLEJ/FKoKs1Nxg3AeCau2ktaNVzlKRgLk3iasvoYxDwUXMuqi9CpD82dWxzMTtrkp2OC620ekpEr8tFbia2kmG11VptJ5REqekRfeqywBM0yZVlMnLpmwzU2BWAN/wOw8BVblk2KzteoHqVXMONKsTvT19eH06dM4ceJEeweojuSpNUorsCKSZ/+GQfR3c01HdVRRzddQQqFy4R2I/Fp1vvWO4qrcj1bPY6QyVaiOCNzK9bRbr6s4ffo0Tp06hWZSZYTbxABtFzQ2DGLtc3A60ZYtnQ5d3cHztVs2RipThTfavG/t1us24NlMhmFMAYsZwzCmgMWMYRhTwGLGMIwpYDFjGMYUsJgxDGMKWMwYhjEFLGYMw5gCFjOGYUwBixnDMKaAxYxhGFPAYsYwjClgMWMYxhSwmDEMYwpYzBiGMQUsZgzDmAIOzmgQSoVCZRccrQHtqqN/AugfHNRhN6PWWGF3CxFI2823Zqojn3Y8MKRGDFCutfRC/eSWWVcpIPWfh7HnH/swMDSEIeUzMIyt7rOI/W+djSVf55E4P4Wt/2egkmdoCAP/uAe+G8tr32tSg93LN3yr7X6zD1ucPkS+rW9B4X8j8Dm31OQbxlb3BaSer6PJr7OIHd2DLQNV5x0awPDbU5j7us597jTrUa4Pz6Kvrw++u+3k7rH62drWAkw90OqGJsUMhfbLm4AIVnIfCa7ekQcW8tys3fsmQ2El34iLvLMhisZCK3c2uqh1E682eLFUsRsWch7yy3Z7yTOm2G0nf2L1VheVXXsEchz006VIlMIXq3cgmqF5zTu3t0LNPbsYpvlYiPwHHfKGG3YKPNJ5U5O12qhXuaYCbeygToaqn7w7U4dpVcwWP5K3PhsLUFJlixvxjl9+8F0Uflr5PnPFqb4vIxFRNkwugAAPRddFFIoUPyJVVGGXut2Za+7y9m3Rp9VZ4+QXQIBNReiKlDxuq7tr0ZqtTvjlvRoDlHxRY6+yxdtEaNWWaZ1Ev3ItkvisSpjVxKzYXLiNVD9ZzDpMa2KmbJS6ev/ECkWKfyhvS1beZDVH0f2N8ok0f6jZcddAOihvplsjVDU2RKdRYzcRPQpIojFeRzSUY9f7vW2KFD8i2eOJqW2MppSFg0Lf6XriFtCxXItx8srb/AUiScrd8UtilhBpaSEk7V0pBCjZ8CDGqp9axYzHzLpCCaXH0l9Db9YbEu3HVvsUHOMODOVyKMjf2X4bRzwRh8emlm8QQ8PSX9nn+o8Dpb4MIg3A9kcfXG/VSzUI56QXAJC+vYis/G1JcCKciCN+bg+G1bJtHIYFAO7mkdfV6mWkrgOACw6b2p5HVtjGASCB9LLO9yyfQuRP72O3YyuG+7Zgxy/ew+HzMaw+jY7lWhqC9YgHwvPLOObegeFfnAUAHHMMYavzfVy4UYJlogjxScOD9GT95JaZTqClllmOwvvk3b517VYpxxVaHyNpSuVt7X/QJOmzJYon4hRPNNgktpaU3HLbFyZdtwAW52kGIMBL8TqNgcWPpC6u65p+bcLMTU95129hm4Mc45VdwFvfQb29ci1+F6WZf5LP+U8zFEpnqFjb9Wt4PmPUT+5mdpjWxIxI/GJGHnwWyPFvYVrUYYyrPF61LuM/SfIrYyQtPYgaEJMUGJPuhe7d46fKOE39rlUu4pIe+DONO1+aSQel8STBTaFvquT8VY7mP5THoqajmoW+3XKVxgMFcuyyt3xvjVQ/Wcw6TKtiRlSkpSuVtzcgkHXvDAUjcVrSWHEyXwRXzSQKu/wUX4/B/7IorBzwbQsxSaFZyXb/Iac8y2Uhz5Ul0n2krwtitnTFTY5xB7k+WWpgT/2Woi7lKguqcGieRFqk4FirLULj1E8Wsw7TupjJ5OJ06ZCzqtLIFWcyQNFvGr+7k2eq80iD2N6bLXTtWkFPMSsfq/Kx7gtSXNf+Ze25Otgya0iSAk3u45rL9dUiBXfVTNQo4jYdba0bb4D6yWLWYdoWM4WiSEuJMAVXVBw1P54qXogkiiKJYo6WEmHy75VmlyzTUf27mXqKGRVlu0USs4sUveiRu2UOCqRM0M1UKOZocSFMl2aVFkqQgrMz5Gx2H/Uo19w8hb6oTl2kxf8K0ny7L4wu1k8Wsw6zZjGrppij+DlnGw6dGQpNSG/OmQW922frOGZGRMU7XtkX7BKpdM7ap0tilol5ySFUHnr7uIMc49UTAa28FNazXNugw/WTXTN6mX4Bjg+jCB8RAKRw7GZS4xIQCxyTLgB5zH29rLNRAizjABDD4ndNrHm+jMS9BBL3lqF1Ar5//D14AOBhAukf1mToSjYKkssHRBTrmJ17kgQAuEYsupyydNeHHa4LSGyeQTgtgiiD5J044nfiiN+5IF1nS6xnubaBIesnr83sCvkb76Gvrw99RxMNKkE/ttp2SH8+ycuikMXC+Qu4cP4yUnVUYkAJHfCiqPMaOAu2/lwAAIQfphumLKTmsNuxG7v/IwlR+e7hZVw4fwEXvszWzTcgpawrOm3RP4ThUQBII6sqkiWIouTZZtmo5ofWKgUkbl1AHoD3TBDuUS3H7Ga5rqY36yeLWVcQLNshAMD1BSRf1k9XfCnXiI1KtIEC0h/54Ds6h2Qdp0clj214SPcIBfa9PtgB5E8EEanrdFlA4tYcAMA56YDS1ik9TcB31AffrbR6a61UlIXPiuGNelpthW1CAJBA7IGKkJaSSMhOtdutetyxEgrygnlVh9OXInKrvuxuudbSq/WTx8x0Ai2NmWXKTonC/hAtqQwfFJdD5JYX5s58UUmwOGuT84VV175JeewUTLd9KQ0oUvJMozV7Ii19oqzNrFk0/ixKHmWM5YHK2kz5uJIrgc5WpwLyMiwvzdccPHPF1bLfV2MqS3Zsx+MrjylWL9JfOWbW3XKtxVj1kycAOkxrYkZEz+Lk31WJPmHfN0N+xSdnl1UeXAXZfz+/cubnheJgCsKIk2aOy7Nk1VEJziX199cqUxUVARayT3vl83vIsU2JsqA+K1le1A2BrJPe1VEYRjwUXYfJhRUiLDjII98z76S1vChe10kNxWkWIGGbVEbeaXngXxDke1CzFrTr5VqDgepn74iZpuUVEkVlOl8UNS7L6BwtixkR0ascJSMBcisiUPWxjHkouJBRL/RXGZo/o1SOykfY5qZgYj2ctWoRaSniJedIrR+RhZyHLjX0FxMfhapCyFTlOxJWbQHoaXNydvU9s0x4Kbysv0SIjy7VlKtA1skgJZ9VWj2rFr53vVxrMEj91F3MytPXrXwarLMTl+dlZ7xmK/gbPDhHwrT0omHmjtGWmFXzoiLUouZnq8pfS3smXVnxgmkl44tuvZiq7lkH6k6x5TIlMkK5rqKL9VOrmGkPm73BAse4o+bLIrJ3U8gCsIw5YHmz5ue3amZyni9j4cYc5i7OYeF75csdDU5aQupPTuw4kQIEK9xHPHDYLUA6gdiNOSycn8LCgywW7/mhuki/l9gwiNbn0rof9rntUMhtXa8edPaetXd/ul+uq+iF+tm2XBJRZWlG80iWuZvuSqtKsJJz0ikNyjZomZWD6o16V0cgFePkl6M4uCJdaILXAD2dZhmGKWM8p9nXgHXSi9DCEsSnS5ifnUJjF8USkrfPIg/AddQHZ+10/aADh4+6AACxB4uanTMZhjEnHdudSZgMY2mylRwF5GVfle0WQf2Ylu0AYsDzQgc28WAYxsgYeKs5Ae6bBHeDFPnsIgDAZrdCXe6qKSH/dRJLL5oke3MrdvxM6PrWXgzDtIaBxawZWcxfjwGwY2qXTUP6AhKzuzH1P02S7Qsjd9OtQRwZhjESPStm2es+vH8bEI4EMDOqJccgHEfjiB9qkuzNrV2aZWMYZi30pJiVHp7F1L/EAMGL8AmHxi5hP4SfObjFxTAmpfcWmj+JwPPuMaRgR+BWAI4N3TaIYRgj0FstsycRTNmnEMnbEXiwAP9YK8P0BaQ+vYzk8ybJNu6AZ9rOXU2G6TF6R8xepnB2cgqRvAB3JAz//21VbkrI3vbBp2ECYGra3q6VDMN0id4Qs5cpnP2lC8ceCnBfSyI82U5EUJ4AYBgz0wNilkXkdy4cu5eH/UwSl/e3G9qYJwAYxswYfAKggNSfpjB1XRKyxHE7O7MyDKOKoVtm+f+ZkSJmQEDh3jHsedAg8d4g4r/X4jzLMIwZMbSY4bWy4jKP5Xt5NNzP5ee8OpNhfsysUczs8BPB307Wt9yIUqOVl4AwGQW1tDidYZgfK8ZumTFAqYBCudFpwKB99egFu1/D/E/AywIKr5V/DFoOOmHwCYAfMa+ziB3dgy0DQxgaUj4DGH57CnNfGzh6Ww/YXfh2AXO/24Mtf38WqW4bs14U0phzb8XwmyvLYYvTh1jdbQJ7nA4EivxRAF0jzVbtgDTiIu/FMM3HQuQ/6JB3xbFT4JFBYsOvwMB2P1ui+YszNXtJNNt/okep2iFJ2OUh/5UozUcukXefvJGM4Kbo0+aHMQq9szuTSdBTzMrhwscClKzZdKO8XdtEaOUWXwbAqHa3E7K9l8lccVb2rlzxS9X+pB/GO7dt3RoxXthsRiOVcOGeozOw1yykt0z64BsFcDuCxPdq+buFge1uOWR7L5NF4sYCABt8f3TXXGc/7Id88ADI/8cCkiZzAGAxMxzLSF0HABccNrWFVVbYxgEggfSyMcagJIxrtzAZxlIkCM+EFYNmH/DPp5G4CwBO7FCL87fRBrtSDt921LJ1h8XMaBRyyOUBwAJBde1VP4aGJefgXEHsoGFN6FW7zUY+K/ljjlvqLN0bwvAIAKQhvuygXR2AxcxovCwgBwAYwkCdWfRhQeo8xJ7kO2VVc3rVbrNRKiENAIMDGFBNMIihYemv5afmKgcWM4ZhTAGLGcMwpoDFjGEYU8BixjCMKWAxMxobBdk3SESxjh9Q7kkSAOAaMZC3VK/abTY2CnAAQKGIomqCPHLfSX9tt5grVCmLmdHoH8LwKACkkf1BLUEJoijNQlk2GijAd6/abTY2DsMKAHeXkVV9qRQhFYMDwsZOGrb+sJgZDitsEwKABGIPsqt/LiWRkJ1Tt1uNFAGhV+02GYNW2CYAIIxESkXNvk8gdheA4MDWkQ7bts6wmBmOfuz45WHYACz8+xwWapzlszfmcDYPYHoKzre6YV89etVus2HBnv0uAHmcPX8Zy6+rfysgcW0OCwBsf3TCbHuQmX1xR0/SP+bF3Jl57DhxAXusaXgOOmF9E8ilLyN8YxkQ3AifcBluF6letdtsCJNBhG8nMXX9MLZaE/D+dgeGISJ7L4K521lgLIC5QyYMMd+BRe8/CqBrCCAiIpGSs26yCtUha0CWCS+Fl40c76AH7H4aJpeJo2YQEdGLJQofcZIF1eUgkHUySMln3TauNbRGzegjIuqWkJqJvr4+nD59GidOnND5yCUUlJCtbwxicEPj1MahV+02Ga9LKLyUy6F/EL0YaPb06dM4deoUmkkVdzMNT6+GOu5Vu03GGz+ecuAJAIZhTAGLGcMwpoDFjGEYU8BixjCMKWAxYxjGFLCYMQxjCljMGIYxBSxmDMOYAhYzhmFMAYsZwzCmgMWMYRhTwGLGMIwpYDFjGMYUsJgxDGMKWMwYhjEFLGYMw5gCDs5odEoFFMqb7PRQoD2j2m1UuzrBa5j6ieeWmVF5nUXs6B5sGRjC0JDyGcDw21OY+7rQPH+3MKrdRrVr3Skh/zCCs+6tGHZHkO+2OeuIiXW6l8ki8psdmLqeB0Zc8P7re3C8VUTydgSX/zuCw/+cReFRAv6fGa1VYVS7jWrX+lH6IYXYp5cQ+K8IlhUF29dVk9af9d5Z5ccCdNydqZjwkwAQxgKUfLHyt0zELf02EaKMLmfTD6PabVS71ovFc0JlR6YRO3n2OaW/94Up123j2kDr7kzczTQcJSRvn0UegOfoDOw1uxpZJn3wjQK4HUHi+27YVw+j2m1Uu9aP0usBOA8FEU7lUPwuidAfd3TbpI7A3UzDsYzUdQBwwWFT2y7XCts4gMcJpJcLwIhRttQ1qt1GtWv9sB/PYL7bRnQBbpkZjUIOuTwAWCAIagn6MTQs7UadK4gdNKwJRrXbqHYxusNiZjReFpADAAxhoM549LBgAQDEnhhobsqodhvVLkZ3WMwYhjEFLGYMw5gCFjMd+dvf/tZtExjGdBCRpnQsZgzDmAIWM53YtGkTnjx5svYDbRQgDUeLKJbUk+SeJAEArhHL2s+nF0a126h2MZp5/PgxfvrTnzZNx2KmE5s3b9ZHzPqHMDwKAGlkf1BLUIIoSrNulo0G8okyqt1GtYvRTKFQwOBg87JhMdOJnTt34quvvtLhSFbYJgQACcQeZFf/XEoiITuBbrcaaS2hUe02ql2MVr766ivs3LmzaToWM50YHR0FIDWJ10Y/dvzyMGwAFv59Dgs1AR2yN+ZwNg9gegrOt9Z4Kl0xqt1GtYvRgvI8Kc9XQ9Z/meiPA1EUCQB9/PHHOhytSMkzdmlxsOAgz/EgBWeD5J20SouiBTeFszqcRneMardR7eoQqUDPLjQ/efKkpkXmREQsZjpy4MAB2rx5s05HEyk56yargEoEBIAsE14KLxd1Osd6YFS7jWpXB+hhMdu0aRMdOHBAU9o+Io1OHExTHj9+DJvNhnv37mnq42ujhIISGvWNQQxuaJzaOBjVbqPaxdTy2Wef4d1330U6ndbUzWQx05mdO3eir68P9+7d67YpDNPTjI6OYvPmzfjss880pecJAJ25evUq7t+/j6tXr3bbFIbpWa5evYq//OUv+POf/6w5D7fM1oEPPvgAn3/+OdLptCb/GIZhKhQKBVgsFvzhD3/AqVOnNOdjMWMYxhRwN5NhGFPAYsYwjClgMWMYxhSwmDEMYwpYzBiGMQUsZgzDmAIWM4ZhTAGLGcMwpuD/AxgK+K4f1GQAAAAAAElFTkSuQmCC;" parent="1" vertex="1">
          <mxGeometry x="1627" y="375" width="307" height="149" as="geometry" />
        </mxCell>
      </root>
    </mxGraphModel>
  </diagram>
</mxfile>
